<?xml version="1.0" encoding="utf-8" standalone="no"?>
<!DOCTYPE svg PUBLIC "-//W3C//DTD SVG 1.1//EN"
  "http://www.w3.org/Graphics/SVG/1.1/DTD/svg11.dtd">
<svg xmlns:xlink="http://www.w3.org/1999/xlink" width="460.8pt" height="345.6pt" viewBox="0 0 460.8 345.6" xmlns="http://www.w3.org/2000/svg" version="1.1">
 <metadata>
  <rdf:RDF xmlns:dc="http://purl.org/dc/elements/1.1/" xmlns:cc="http://creativecommons.org/ns#" xmlns:rdf="http://www.w3.org/1999/02/22-rdf-syntax-ns#">
   <cc:Work>
    <dc:type rdf:resource="http://purl.org/dc/dcmitype/StillImage"/>
    <dc:date>2024-10-26T18:33:40.677115</dc:date>
    <dc:format>image/svg+xml</dc:format>
    <dc:creator>
     <cc:Agent>
      <dc:title>Matplotlib v3.9.2, https://matplotlib.org/</dc:title>
     </cc:Agent>
    </dc:creator>
   </cc:Work>
  </rdf:RDF>
 </metadata>
 <defs>
  <style type="text/css">*{stroke-linejoin: round; stroke-linecap: butt}</style>
 </defs>
 <g id="figure_1">
  <g id="patch_1">
   <path d="M 0 345.6 
L 460.8 345.6 
L 460.8 0 
L 0 0 
z
" style="fill: #ffffff"/>
  </g>
  <g id="axes_1">
   <g id="patch_2">
    <path d="M 57.6 307.584 
L 414.72 307.584 
L 414.72 41.472 
L 57.6 41.472 
z
" style="fill: #ffffff"/>
   </g>
   <g id="PolyQuadMesh_1">
    <path d="M 57.6 307.584 
L 57.6 299.268 
L 81.408 299.268 
L 81.408 307.584 
L 57.6 307.584 
z
" clip-path="url(#p71797d8926)" style="fill: #440154"/>
    <path d="M 81.408 307.584 
L 81.408 299.268 
L 105.216 299.268 
L 105.216 307.584 
L 81.408 307.584 
z
" clip-path="url(#p71797d8926)" style="fill: #440154"/>
    <path d="M 105.216 307.584 
L 105.216 299.268 
L 129.024 299.268 
L 129.024 307.584 
L 105.216 307.584 
z
" clip-path="url(#p71797d8926)" style="fill: #440154"/>
    <path d="M 129.024 307.584 
L 129.024 299.268 
L 152.832 299.268 
L 152.832 307.584 
L 129.024 307.584 
z
" clip-path="url(#p71797d8926)" style="fill: #440154"/>
    <path d="M 152.832 307.584 
L 152.832 299.268 
L 176.64 299.268 
L 176.64 307.584 
L 152.832 307.584 
z
" clip-path="url(#p71797d8926)" style="fill: #440154"/>
    <path d="M 176.64 307.584 
L 176.64 299.268 
L 200.448 299.268 
L 200.448 307.584 
L 176.64 307.584 
z
" clip-path="url(#p71797d8926)" style="fill: #440154"/>
    <path d="M 200.448 307.584 
L 200.448 299.268 
L 224.256 299.268 
L 224.256 307.584 
L 200.448 307.584 
z
" clip-path="url(#p71797d8926)" style="fill: #440154"/>
    <path d="M 224.256 307.584 
L 224.256 299.268 
L 248.064 299.268 
L 248.064 307.584 
L 224.256 307.584 
z
" clip-path="url(#p71797d8926)" style="fill: #fde725"/>
    <path d="M 248.064 307.584 
L 248.064 299.268 
L 271.872 299.268 
L 271.872 307.584 
L 248.064 307.584 
z
" clip-path="url(#p71797d8926)" style="fill: #440154"/>
    <path d="M 271.872 307.584 
L 271.872 299.268 
L 295.68 299.268 
L 295.68 307.584 
L 271.872 307.584 
z
" clip-path="url(#p71797d8926)" style="fill: #440154"/>
    <path d="M 295.68 307.584 
L 295.68 299.268 
L 319.488 299.268 
L 319.488 307.584 
L 295.68 307.584 
z
" clip-path="url(#p71797d8926)" style="fill: #440154"/>
    <path d="M 319.488 307.584 
L 319.488 299.268 
L 343.296 299.268 
L 343.296 307.584 
L 319.488 307.584 
z
" clip-path="url(#p71797d8926)" style="fill: #440154"/>
    <path d="M 343.296 307.584 
L 343.296 299.268 
L 367.104 299.268 
L 367.104 307.584 
L 343.296 307.584 
z
" clip-path="url(#p71797d8926)" style="fill: #440154"/>
    <path d="M 367.104 307.584 
L 367.104 299.268 
L 390.912 299.268 
L 390.912 307.584 
L 367.104 307.584 
z
" clip-path="url(#p71797d8926)" style="fill: #440154"/>
    <path d="M 390.912 307.584 
L 390.912 299.268 
L 414.72 299.268 
L 414.72 307.584 
L 390.912 307.584 
z
" clip-path="url(#p71797d8926)" style="fill: #440154"/>
    <path d="M 57.6 299.268 
L 57.6 290.952 
L 81.408 290.952 
L 81.408 299.268 
L 57.6 299.268 
z
" clip-path="url(#p71797d8926)" style="fill: #440154"/>
    <path d="M 81.408 299.268 
L 81.408 290.952 
L 105.216 290.952 
L 105.216 299.268 
L 81.408 299.268 
z
" clip-path="url(#p71797d8926)" style="fill: #440154"/>
    <path d="M 105.216 299.268 
L 105.216 290.952 
L 129.024 290.952 
L 129.024 299.268 
L 105.216 299.268 
z
" clip-path="url(#p71797d8926)" style="fill: #440154"/>
    <path d="M 129.024 299.268 
L 129.024 290.952 
L 152.832 290.952 
L 152.832 299.268 
L 129.024 299.268 
z
" clip-path="url(#p71797d8926)" style="fill: #440154"/>
    <path d="M 152.832 299.268 
L 152.832 290.952 
L 176.64 290.952 
L 176.64 299.268 
L 152.832 299.268 
z
" clip-path="url(#p71797d8926)" style="fill: #440154"/>
    <path d="M 176.64 299.268 
L 176.64 290.952 
L 200.448 290.952 
L 200.448 299.268 
L 176.64 299.268 
z
" clip-path="url(#p71797d8926)" style="fill: #440256"/>
    <path d="M 200.448 299.268 
L 200.448 290.952 
L 224.256 290.952 
L 224.256 299.268 
L 200.448 299.268 
z
" clip-path="url(#p71797d8926)" style="fill: #472e7c"/>
    <path d="M 224.256 299.268 
L 224.256 290.952 
L 248.064 290.952 
L 248.064 299.268 
L 224.256 299.268 
z
" clip-path="url(#p71797d8926)" style="fill: #50c46a"/>
    <path d="M 248.064 299.268 
L 248.064 290.952 
L 271.872 290.952 
L 271.872 299.268 
L 248.064 299.268 
z
" clip-path="url(#p71797d8926)" style="fill: #472e7c"/>
    <path d="M 271.872 299.268 
L 271.872 290.952 
L 295.68 290.952 
L 295.68 299.268 
L 271.872 299.268 
z
" clip-path="url(#p71797d8926)" style="fill: #440256"/>
    <path d="M 295.68 299.268 
L 295.68 290.952 
L 319.488 290.952 
L 319.488 299.268 
L 295.68 299.268 
z
" clip-path="url(#p71797d8926)" style="fill: #440154"/>
    <path d="M 319.488 299.268 
L 319.488 290.952 
L 343.296 290.952 
L 343.296 299.268 
L 319.488 299.268 
z
" clip-path="url(#p71797d8926)" style="fill: #440154"/>
    <path d="M 343.296 299.268 
L 343.296 290.952 
L 367.104 290.952 
L 367.104 299.268 
L 343.296 299.268 
z
" clip-path="url(#p71797d8926)" style="fill: #440154"/>
    <path d="M 367.104 299.268 
L 367.104 290.952 
L 390.912 290.952 
L 390.912 299.268 
L 367.104 299.268 
z
" clip-path="url(#p71797d8926)" style="fill: #440154"/>
    <path d="M 390.912 299.268 
L 390.912 290.952 
L 414.72 290.952 
L 414.72 299.268 
L 390.912 299.268 
z
" clip-path="url(#p71797d8926)" style="fill: #440154"/>
    <path d="M 57.6 290.952 
L 57.6 282.636 
L 81.408 282.636 
L 81.408 290.952 
L 57.6 290.952 
z
" clip-path="url(#p71797d8926)" style="fill: #440154"/>
    <path d="M 81.408 290.952 
L 81.408 282.636 
L 105.216 282.636 
L 105.216 290.952 
L 81.408 290.952 
z
" clip-path="url(#p71797d8926)" style="fill: #440154"/>
    <path d="M 105.216 290.952 
L 105.216 282.636 
L 129.024 282.636 
L 129.024 290.952 
L 105.216 290.952 
z
" clip-path="url(#p71797d8926)" style="fill: #440154"/>
    <path d="M 129.024 290.952 
L 129.024 282.636 
L 152.832 282.636 
L 152.832 290.952 
L 129.024 290.952 
z
" clip-path="url(#p71797d8926)" style="fill: #440154"/>
    <path d="M 152.832 290.952 
L 152.832 282.636 
L 176.64 282.636 
L 176.64 290.952 
L 152.832 290.952 
z
" clip-path="url(#p71797d8926)" style="fill: #440256"/>
    <path d="M 176.64 290.952 
L 176.64 282.636 
L 200.448 282.636 
L 200.448 290.952 
L 176.64 290.952 
z
" clip-path="url(#p71797d8926)" style="fill: #481b6d"/>
    <path d="M 200.448 290.952 
L 200.448 282.636 
L 224.256 282.636 
L 224.256 290.952 
L 200.448 290.952 
z
" clip-path="url(#p71797d8926)" style="fill: #32658e"/>
    <path d="M 224.256 290.952 
L 224.256 282.636 
L 248.064 282.636 
L 248.064 290.952 
L 224.256 290.952 
z
" clip-path="url(#p71797d8926)" style="fill: #3e4a89"/>
    <path d="M 248.064 290.952 
L 248.064 282.636 
L 271.872 282.636 
L 271.872 290.952 
L 248.064 290.952 
z
" clip-path="url(#p71797d8926)" style="fill: #32658e"/>
    <path d="M 271.872 290.952 
L 271.872 282.636 
L 295.68 282.636 
L 295.68 290.952 
L 271.872 290.952 
z
" clip-path="url(#p71797d8926)" style="fill: #481668"/>
    <path d="M 295.68 290.952 
L 295.68 282.636 
L 319.488 282.636 
L 319.488 290.952 
L 295.68 290.952 
z
" clip-path="url(#p71797d8926)" style="fill: #440256"/>
    <path d="M 319.488 290.952 
L 319.488 282.636 
L 343.296 282.636 
L 343.296 290.952 
L 319.488 290.952 
z
" clip-path="url(#p71797d8926)" style="fill: #440154"/>
    <path d="M 343.296 290.952 
L 343.296 282.636 
L 367.104 282.636 
L 367.104 290.952 
L 343.296 290.952 
z
" clip-path="url(#p71797d8926)" style="fill: #440154"/>
    <path d="M 367.104 290.952 
L 367.104 282.636 
L 390.912 282.636 
L 390.912 290.952 
L 367.104 290.952 
z
" clip-path="url(#p71797d8926)" style="fill: #440154"/>
    <path d="M 390.912 290.952 
L 390.912 282.636 
L 414.72 282.636 
L 414.72 290.952 
L 390.912 290.952 
z
" clip-path="url(#p71797d8926)" style="fill: #440154"/>
    <path d="M 57.6 282.636 
L 57.6 274.32 
L 81.408 274.32 
L 81.408 282.636 
L 57.6 282.636 
z
" clip-path="url(#p71797d8926)" style="fill: #440154"/>
    <path d="M 81.408 282.636 
L 81.408 274.32 
L 105.216 274.32 
L 105.216 282.636 
L 81.408 282.636 
z
" clip-path="url(#p71797d8926)" style="fill: #440154"/>
    <path d="M 105.216 282.636 
L 105.216 274.32 
L 129.024 274.32 
L 129.024 282.636 
L 105.216 282.636 
z
" clip-path="url(#p71797d8926)" style="fill: #440154"/>
    <path d="M 129.024 282.636 
L 129.024 274.32 
L 152.832 274.32 
L 152.832 282.636 
L 129.024 282.636 
z
" clip-path="url(#p71797d8926)" style="fill: #440256"/>
    <path d="M 152.832 282.636 
L 152.832 274.32 
L 176.64 274.32 
L 176.64 282.636 
L 152.832 282.636 
z
" clip-path="url(#p71797d8926)" style="fill: #470e61"/>
    <path d="M 176.64 282.636 
L 176.64 274.32 
L 200.448 274.32 
L 200.448 282.636 
L 176.64 282.636 
z
" clip-path="url(#p71797d8926)" style="fill: #424186"/>
    <path d="M 200.448 282.636 
L 200.448 274.32 
L 224.256 274.32 
L 224.256 282.636 
L 200.448 282.636 
z
" clip-path="url(#p71797d8926)" style="fill: #375a8c"/>
    <path d="M 224.256 282.636 
L 224.256 274.32 
L 248.064 274.32 
L 248.064 282.636 
L 224.256 282.636 
z
" clip-path="url(#p71797d8926)" style="fill: #440154"/>
    <path d="M 248.064 282.636 
L 248.064 274.32 
L 271.872 274.32 
L 271.872 282.636 
L 248.064 282.636 
z
" clip-path="url(#p71797d8926)" style="fill: #375a8c"/>
    <path d="M 271.872 282.636 
L 271.872 274.32 
L 295.68 274.32 
L 295.68 282.636 
L 271.872 282.636 
z
" clip-path="url(#p71797d8926)" style="fill: #443983"/>
    <path d="M 295.68 282.636 
L 295.68 274.32 
L 319.488 274.32 
L 319.488 282.636 
L 295.68 282.636 
z
" clip-path="url(#p71797d8926)" style="fill: #470e61"/>
    <path d="M 319.488 282.636 
L 319.488 274.32 
L 343.296 274.32 
L 343.296 282.636 
L 319.488 282.636 
z
" clip-path="url(#p71797d8926)" style="fill: #440154"/>
    <path d="M 343.296 282.636 
L 343.296 274.32 
L 367.104 274.32 
L 367.104 282.636 
L 343.296 282.636 
z
" clip-path="url(#p71797d8926)" style="fill: #440154"/>
    <path d="M 367.104 282.636 
L 367.104 274.32 
L 390.912 274.32 
L 390.912 282.636 
L 367.104 282.636 
z
" clip-path="url(#p71797d8926)" style="fill: #440154"/>
    <path d="M 390.912 282.636 
L 390.912 274.32 
L 414.72 274.32 
L 414.72 282.636 
L 390.912 282.636 
z
" clip-path="url(#p71797d8926)" style="fill: #440154"/>
    <path d="M 57.6 274.32 
L 57.6 266.004 
L 81.408 266.004 
L 81.408 274.32 
L 57.6 274.32 
z
" clip-path="url(#p71797d8926)" style="fill: #440154"/>
    <path d="M 81.408 274.32 
L 81.408 266.004 
L 105.216 266.004 
L 105.216 274.32 
L 81.408 274.32 
z
" clip-path="url(#p71797d8926)" style="fill: #440154"/>
    <path d="M 105.216 274.32 
L 105.216 266.004 
L 129.024 266.004 
L 129.024 274.32 
L 105.216 274.32 
z
" clip-path="url(#p71797d8926)" style="fill: #440154"/>
    <path d="M 129.024 274.32 
L 129.024 266.004 
L 152.832 266.004 
L 152.832 274.32 
L 129.024 274.32 
z
" clip-path="url(#p71797d8926)" style="fill: #460a5d"/>
    <path d="M 152.832 274.32 
L 152.832 266.004 
L 176.64 266.004 
L 176.64 274.32 
L 152.832 274.32 
z
" clip-path="url(#p71797d8926)" style="fill: #482878"/>
    <path d="M 176.64 274.32 
L 176.64 266.004 
L 200.448 266.004 
L 200.448 274.32 
L 176.64 274.32 
z
" clip-path="url(#p71797d8926)" style="fill: #3b528b"/>
    <path d="M 200.448 274.32 
L 200.448 266.004 
L 224.256 266.004 
L 224.256 274.32 
L 200.448 274.32 
z
" clip-path="url(#p71797d8926)" style="fill: #481d6f"/>
    <path d="M 224.256 274.32 
L 224.256 266.004 
L 248.064 266.004 
L 248.064 274.32 
L 224.256 274.32 
z
" clip-path="url(#p71797d8926)" style="fill: #482173"/>
    <path d="M 248.064 274.32 
L 248.064 266.004 
L 271.872 266.004 
L 271.872 274.32 
L 248.064 274.32 
z
" clip-path="url(#p71797d8926)" style="fill: #481d6f"/>
    <path d="M 271.872 274.32 
L 271.872 266.004 
L 295.68 266.004 
L 295.68 274.32 
L 271.872 274.32 
z
" clip-path="url(#p71797d8926)" style="fill: #3e4989"/>
    <path d="M 295.68 274.32 
L 295.68 266.004 
L 319.488 266.004 
L 319.488 274.32 
L 295.68 274.32 
z
" clip-path="url(#p71797d8926)" style="fill: #482878"/>
    <path d="M 319.488 274.32 
L 319.488 266.004 
L 343.296 266.004 
L 343.296 274.32 
L 319.488 274.32 
z
" clip-path="url(#p71797d8926)" style="fill: #46085c"/>
    <path d="M 343.296 274.32 
L 343.296 266.004 
L 367.104 266.004 
L 367.104 274.32 
L 343.296 274.32 
z
" clip-path="url(#p71797d8926)" style="fill: #440154"/>
    <path d="M 367.104 274.32 
L 367.104 266.004 
L 390.912 266.004 
L 390.912 274.32 
L 367.104 274.32 
z
" clip-path="url(#p71797d8926)" style="fill: #440154"/>
    <path d="M 390.912 274.32 
L 390.912 266.004 
L 414.72 266.004 
L 414.72 274.32 
L 390.912 274.32 
z
" clip-path="url(#p71797d8926)" style="fill: #440154"/>
    <path d="M 57.6 266.004 
L 57.6 257.688 
L 81.408 257.688 
L 81.408 266.004 
L 57.6 266.004 
z
" clip-path="url(#p71797d8926)" style="fill: #440154"/>
    <path d="M 81.408 266.004 
L 81.408 257.688 
L 105.216 257.688 
L 105.216 266.004 
L 81.408 266.004 
z
" clip-path="url(#p71797d8926)" style="fill: #440154"/>
    <path d="M 105.216 266.004 
L 105.216 257.688 
L 129.024 257.688 
L 129.024 266.004 
L 105.216 266.004 
z
" clip-path="url(#p71797d8926)" style="fill: #450559"/>
    <path d="M 129.024 266.004 
L 129.024 257.688 
L 152.832 257.688 
L 152.832 266.004 
L 129.024 266.004 
z
" clip-path="url(#p71797d8926)" style="fill: #481d6f"/>
    <path d="M 152.832 266.004 
L 152.832 257.688 
L 176.64 257.688 
L 176.64 266.004 
L 152.832 266.004 
z
" clip-path="url(#p71797d8926)" style="fill: #433e85"/>
    <path d="M 176.64 266.004 
L 176.64 257.688 
L 200.448 257.688 
L 200.448 266.004 
L 176.64 266.004 
z
" clip-path="url(#p71797d8926)" style="fill: #453581"/>
    <path d="M 200.448 266.004 
L 200.448 257.688 
L 224.256 257.688 
L 224.256 266.004 
L 200.448 266.004 
z
" clip-path="url(#p71797d8926)" style="fill: #440154"/>
    <path d="M 224.256 266.004 
L 224.256 257.688 
L 248.064 257.688 
L 248.064 266.004 
L 224.256 266.004 
z
" clip-path="url(#p71797d8926)" style="fill: #453882"/>
    <path d="M 248.064 266.004 
L 248.064 257.688 
L 271.872 257.688 
L 271.872 266.004 
L 248.064 266.004 
z
" clip-path="url(#p71797d8926)" style="fill: #440154"/>
    <path d="M 271.872 266.004 
L 271.872 257.688 
L 295.68 257.688 
L 295.68 266.004 
L 271.872 266.004 
z
" clip-path="url(#p71797d8926)" style="fill: #46307e"/>
    <path d="M 295.68 266.004 
L 295.68 257.688 
L 319.488 257.688 
L 319.488 266.004 
L 295.68 266.004 
z
" clip-path="url(#p71797d8926)" style="fill: #433e85"/>
    <path d="M 319.488 266.004 
L 319.488 257.688 
L 343.296 257.688 
L 343.296 266.004 
L 319.488 266.004 
z
" clip-path="url(#p71797d8926)" style="fill: #48186a"/>
    <path d="M 343.296 266.004 
L 343.296 257.688 
L 367.104 257.688 
L 367.104 266.004 
L 343.296 266.004 
z
" clip-path="url(#p71797d8926)" style="fill: #450559"/>
    <path d="M 367.104 266.004 
L 367.104 257.688 
L 390.912 257.688 
L 390.912 266.004 
L 367.104 266.004 
z
" clip-path="url(#p71797d8926)" style="fill: #440154"/>
    <path d="M 390.912 266.004 
L 390.912 257.688 
L 414.72 257.688 
L 414.72 266.004 
L 390.912 266.004 
z
" clip-path="url(#p71797d8926)" style="fill: #440154"/>
    <path d="M 57.6 257.688 
L 57.6 249.372 
L 81.408 249.372 
L 81.408 257.688 
L 57.6 257.688 
z
" clip-path="url(#p71797d8926)" style="fill: #440154"/>
    <path d="M 81.408 257.688 
L 81.408 249.372 
L 105.216 249.372 
L 105.216 257.688 
L 81.408 257.688 
z
" clip-path="url(#p71797d8926)" style="fill: #450457"/>
    <path d="M 105.216 257.688 
L 105.216 249.372 
L 129.024 249.372 
L 129.024 257.688 
L 105.216 257.688 
z
" clip-path="url(#p71797d8926)" style="fill: #471365"/>
    <path d="M 129.024 257.688 
L 129.024 249.372 
L 152.832 249.372 
L 152.832 257.688 
L 129.024 257.688 
z
" clip-path="url(#p71797d8926)" style="fill: #463480"/>
    <path d="M 152.832 257.688 
L 152.832 249.372 
L 176.64 249.372 
L 176.64 257.688 
L 152.832 257.688 
z
" clip-path="url(#p71797d8926)" style="fill: #443983"/>
    <path d="M 176.64 257.688 
L 176.64 249.372 
L 200.448 249.372 
L 200.448 257.688 
L 176.64 257.688 
z
" clip-path="url(#p71797d8926)" style="fill: #46085c"/>
    <path d="M 200.448 257.688 
L 200.448 249.372 
L 224.256 249.372 
L 224.256 257.688 
L 200.448 257.688 
z
" clip-path="url(#p71797d8926)" style="fill: #481d6f"/>
    <path d="M 224.256 257.688 
L 224.256 249.372 
L 248.064 249.372 
L 248.064 257.688 
L 224.256 257.688 
z
" clip-path="url(#p71797d8926)" style="fill: #481b6d"/>
    <path d="M 248.064 257.688 
L 248.064 249.372 
L 271.872 249.372 
L 271.872 257.688 
L 248.064 257.688 
z
" clip-path="url(#p71797d8926)" style="fill: #481d6f"/>
    <path d="M 271.872 257.688 
L 271.872 249.372 
L 295.68 249.372 
L 295.68 257.688 
L 271.872 257.688 
z
" clip-path="url(#p71797d8926)" style="fill: #46085c"/>
    <path d="M 295.68 257.688 
L 295.68 249.372 
L 319.488 249.372 
L 319.488 257.688 
L 295.68 257.688 
z
" clip-path="url(#p71797d8926)" style="fill: #443983"/>
    <path d="M 319.488 257.688 
L 319.488 249.372 
L 343.296 249.372 
L 343.296 257.688 
L 319.488 257.688 
z
" clip-path="url(#p71797d8926)" style="fill: #472d7b"/>
    <path d="M 343.296 257.688 
L 343.296 249.372 
L 367.104 249.372 
L 367.104 257.688 
L 343.296 257.688 
z
" clip-path="url(#p71797d8926)" style="fill: #471365"/>
    <path d="M 367.104 257.688 
L 367.104 249.372 
L 390.912 249.372 
L 390.912 257.688 
L 367.104 257.688 
z
" clip-path="url(#p71797d8926)" style="fill: #450457"/>
    <path d="M 390.912 257.688 
L 390.912 249.372 
L 414.72 249.372 
L 414.72 257.688 
L 390.912 257.688 
z
" clip-path="url(#p71797d8926)" style="fill: #440154"/>
    <path d="M 57.6 249.372 
L 57.6 241.056 
L 81.408 241.056 
L 81.408 249.372 
L 57.6 249.372 
z
" clip-path="url(#p71797d8926)" style="fill: #450457"/>
    <path d="M 81.408 249.372 
L 81.408 241.056 
L 105.216 241.056 
L 105.216 249.372 
L 81.408 249.372 
z
" clip-path="url(#p71797d8926)" style="fill: #470e61"/>
    <path d="M 105.216 249.372 
L 105.216 241.056 
L 129.024 241.056 
L 129.024 249.372 
L 105.216 249.372 
z
" clip-path="url(#p71797d8926)" style="fill: #482576"/>
    <path d="M 129.024 249.372 
L 129.024 241.056 
L 152.832 241.056 
L 152.832 249.372 
L 129.024 249.372 
z
" clip-path="url(#p71797d8926)" style="fill: #443a83"/>
    <path d="M 152.832 249.372 
L 152.832 241.056 
L 176.64 241.056 
L 176.64 249.372 
L 152.832 249.372 
z
" clip-path="url(#p71797d8926)" style="fill: #48186a"/>
    <path d="M 176.64 249.372 
L 176.64 241.056 
L 200.448 241.056 
L 200.448 249.372 
L 176.64 249.372 
z
" clip-path="url(#p71797d8926)" style="fill: #450559"/>
    <path d="M 200.448 249.372 
L 200.448 241.056 
L 224.256 241.056 
L 224.256 249.372 
L 200.448 249.372 
z
" clip-path="url(#p71797d8926)" style="fill: #482979"/>
    <path d="M 224.256 249.372 
L 224.256 241.056 
L 248.064 241.056 
L 248.064 249.372 
L 224.256 249.372 
z
" clip-path="url(#p71797d8926)" style="fill: #440154"/>
    <path d="M 248.064 249.372 
L 248.064 241.056 
L 271.872 241.056 
L 271.872 249.372 
L 248.064 249.372 
z
" clip-path="url(#p71797d8926)" style="fill: #482979"/>
    <path d="M 271.872 249.372 
L 271.872 241.056 
L 295.68 241.056 
L 295.68 249.372 
L 271.872 249.372 
z
" clip-path="url(#p71797d8926)" style="fill: #450559"/>
    <path d="M 295.68 249.372 
L 295.68 241.056 
L 319.488 241.056 
L 319.488 249.372 
L 295.68 249.372 
z
" clip-path="url(#p71797d8926)" style="fill: #48186a"/>
    <path d="M 319.488 249.372 
L 319.488 241.056 
L 343.296 241.056 
L 343.296 249.372 
L 319.488 249.372 
z
" clip-path="url(#p71797d8926)" style="fill: #46337f"/>
    <path d="M 343.296 249.372 
L 343.296 241.056 
L 367.104 241.056 
L 367.104 249.372 
L 343.296 249.372 
z
" clip-path="url(#p71797d8926)" style="fill: #482576"/>
    <path d="M 367.104 249.372 
L 367.104 241.056 
L 390.912 241.056 
L 390.912 249.372 
L 367.104 249.372 
z
" clip-path="url(#p71797d8926)" style="fill: #460b5e"/>
    <path d="M 390.912 249.372 
L 390.912 241.056 
L 414.72 241.056 
L 414.72 249.372 
L 390.912 249.372 
z
" clip-path="url(#p71797d8926)" style="fill: #450457"/>
    <path d="M 57.6 241.056 
L 57.6 232.74 
L 81.408 232.74 
L 81.408 241.056 
L 57.6 241.056 
z
" clip-path="url(#p71797d8926)" style="fill: #470e61"/>
    <path d="M 81.408 241.056 
L 81.408 232.74 
L 105.216 232.74 
L 105.216 241.056 
L 81.408 241.056 
z
" clip-path="url(#p71797d8926)" style="fill: #481d6f"/>
    <path d="M 105.216 241.056 
L 105.216 232.74 
L 129.024 232.74 
L 129.024 241.056 
L 105.216 241.056 
z
" clip-path="url(#p71797d8926)" style="fill: #46327e"/>
    <path d="M 129.024 241.056 
L 129.024 232.74 
L 152.832 232.74 
L 152.832 241.056 
L 129.024 241.056 
z
" clip-path="url(#p71797d8926)" style="fill: #482677"/>
    <path d="M 152.832 241.056 
L 152.832 232.74 
L 176.64 232.74 
L 176.64 241.056 
L 152.832 241.056 
z
" clip-path="url(#p71797d8926)" style="fill: #440154"/>
    <path d="M 176.64 241.056 
L 176.64 232.74 
L 200.448 232.74 
L 200.448 241.056 
L 176.64 241.056 
z
" clip-path="url(#p71797d8926)" style="fill: #481f70"/>
    <path d="M 200.448 241.056 
L 200.448 232.74 
L 224.256 232.74 
L 224.256 241.056 
L 200.448 241.056 
z
" clip-path="url(#p71797d8926)" style="fill: #471164"/>
    <path d="M 224.256 241.056 
L 224.256 232.74 
L 248.064 232.74 
L 248.064 241.056 
L 224.256 241.056 
z
" clip-path="url(#p71797d8926)" style="fill: #471365"/>
    <path d="M 248.064 241.056 
L 248.064 232.74 
L 271.872 232.74 
L 271.872 241.056 
L 248.064 241.056 
z
" clip-path="url(#p71797d8926)" style="fill: #471164"/>
    <path d="M 271.872 241.056 
L 271.872 232.74 
L 295.68 232.74 
L 295.68 241.056 
L 271.872 241.056 
z
" clip-path="url(#p71797d8926)" style="fill: #481d6f"/>
    <path d="M 295.68 241.056 
L 295.68 232.74 
L 319.488 232.74 
L 319.488 241.056 
L 295.68 241.056 
z
" clip-path="url(#p71797d8926)" style="fill: #440154"/>
    <path d="M 319.488 241.056 
L 319.488 232.74 
L 343.296 232.74 
L 343.296 241.056 
L 319.488 241.056 
z
" clip-path="url(#p71797d8926)" style="fill: #482173"/>
    <path d="M 343.296 241.056 
L 343.296 232.74 
L 367.104 232.74 
L 367.104 241.056 
L 343.296 241.056 
z
" clip-path="url(#p71797d8926)" style="fill: #46327e"/>
    <path d="M 367.104 241.056 
L 367.104 232.74 
L 390.912 232.74 
L 390.912 241.056 
L 367.104 241.056 
z
" clip-path="url(#p71797d8926)" style="fill: #48186a"/>
    <path d="M 390.912 241.056 
L 390.912 232.74 
L 414.72 232.74 
L 414.72 241.056 
L 390.912 241.056 
z
" clip-path="url(#p71797d8926)" style="fill: #470d60"/>
    <path d="M 57.6 232.74 
L 57.6 224.424 
L 81.408 224.424 
L 81.408 232.74 
L 57.6 232.74 
z
" clip-path="url(#p71797d8926)" style="fill: #482374"/>
    <path d="M 81.408 232.74 
L 81.408 224.424 
L 105.216 224.424 
L 105.216 232.74 
L 81.408 232.74 
z
" clip-path="url(#p71797d8926)" style="fill: #482878"/>
    <path d="M 105.216 232.74 
L 105.216 224.424 
L 129.024 224.424 
L 129.024 232.74 
L 105.216 232.74 
z
" clip-path="url(#p71797d8926)" style="fill: #472c7a"/>
    <path d="M 129.024 232.74 
L 129.024 224.424 
L 152.832 224.424 
L 152.832 232.74 
L 129.024 232.74 
z
" clip-path="url(#p71797d8926)" style="fill: #46085c"/>
    <path d="M 152.832 232.74 
L 152.832 224.424 
L 176.64 224.424 
L 176.64 232.74 
L 152.832 232.74 
z
" clip-path="url(#p71797d8926)" style="fill: #470d60"/>
    <path d="M 176.64 232.74 
L 176.64 224.424 
L 200.448 224.424 
L 200.448 232.74 
L 176.64 232.74 
z
" clip-path="url(#p71797d8926)" style="fill: #482071"/>
    <path d="M 200.448 232.74 
L 200.448 224.424 
L 224.256 224.424 
L 224.256 232.74 
L 200.448 232.74 
z
" clip-path="url(#p71797d8926)" style="fill: #440154"/>
    <path d="M 224.256 232.74 
L 224.256 224.424 
L 248.064 224.424 
L 248.064 232.74 
L 224.256 232.74 
z
" clip-path="url(#p71797d8926)" style="fill: #482071"/>
    <path d="M 248.064 232.74 
L 248.064 224.424 
L 271.872 224.424 
L 271.872 232.74 
L 248.064 232.74 
z
" clip-path="url(#p71797d8926)" style="fill: #440154"/>
    <path d="M 271.872 232.74 
L 271.872 224.424 
L 295.68 224.424 
L 295.68 232.74 
L 271.872 232.74 
z
" clip-path="url(#p71797d8926)" style="fill: #481f70"/>
    <path d="M 295.68 232.74 
L 295.68 224.424 
L 319.488 224.424 
L 319.488 232.74 
L 295.68 232.74 
z
" clip-path="url(#p71797d8926)" style="fill: #470d60"/>
    <path d="M 319.488 232.74 
L 319.488 224.424 
L 343.296 224.424 
L 343.296 232.74 
L 319.488 232.74 
z
" clip-path="url(#p71797d8926)" style="fill: #46075a"/>
    <path d="M 343.296 232.74 
L 343.296 224.424 
L 367.104 224.424 
L 367.104 232.74 
L 343.296 232.74 
z
" clip-path="url(#p71797d8926)" style="fill: #472c7a"/>
    <path d="M 367.104 232.74 
L 367.104 224.424 
L 390.912 224.424 
L 390.912 232.74 
L 367.104 232.74 
z
" clip-path="url(#p71797d8926)" style="fill: #482173"/>
    <path d="M 390.912 232.74 
L 390.912 224.424 
L 414.72 224.424 
L 414.72 232.74 
L 390.912 232.74 
z
" clip-path="url(#p71797d8926)" style="fill: #482071"/>
    <path d="M 57.6 224.424 
L 57.6 216.108 
L 81.408 216.108 
L 81.408 224.424 
L 57.6 224.424 
z
" clip-path="url(#p71797d8926)" style="fill: #423f85"/>
    <path d="M 81.408 224.424 
L 81.408 216.108 
L 105.216 216.108 
L 105.216 224.424 
L 81.408 224.424 
z
" clip-path="url(#p71797d8926)" style="fill: #482173"/>
    <path d="M 105.216 224.424 
L 105.216 216.108 
L 129.024 216.108 
L 129.024 224.424 
L 105.216 224.424 
z
" clip-path="url(#p71797d8926)" style="fill: #481668"/>
    <path d="M 129.024 224.424 
L 129.024 216.108 
L 152.832 216.108 
L 152.832 224.424 
L 129.024 224.424 
z
" clip-path="url(#p71797d8926)" style="fill: #440256"/>
    <path d="M 152.832 224.424 
L 152.832 216.108 
L 176.64 216.108 
L 176.64 224.424 
L 152.832 224.424 
z
" clip-path="url(#p71797d8926)" style="fill: #481d6f"/>
    <path d="M 176.64 224.424 
L 176.64 216.108 
L 200.448 216.108 
L 200.448 224.424 
L 176.64 224.424 
z
" clip-path="url(#p71797d8926)" style="fill: #460a5d"/>
    <path d="M 200.448 224.424 
L 200.448 216.108 
L 224.256 216.108 
L 224.256 224.424 
L 200.448 224.424 
z
" clip-path="url(#p71797d8926)" style="fill: #471164"/>
    <path d="M 224.256 224.424 
L 224.256 216.108 
L 248.064 216.108 
L 248.064 224.424 
L 224.256 224.424 
z
" clip-path="url(#p71797d8926)" style="fill: #471063"/>
    <path d="M 248.064 224.424 
L 248.064 216.108 
L 271.872 216.108 
L 271.872 224.424 
L 248.064 224.424 
z
" clip-path="url(#p71797d8926)" style="fill: #471164"/>
    <path d="M 271.872 224.424 
L 271.872 216.108 
L 295.68 216.108 
L 295.68 224.424 
L 271.872 224.424 
z
" clip-path="url(#p71797d8926)" style="fill: #46085c"/>
    <path d="M 295.68 224.424 
L 295.68 216.108 
L 319.488 216.108 
L 319.488 224.424 
L 295.68 224.424 
z
" clip-path="url(#p71797d8926)" style="fill: #481d6f"/>
    <path d="M 319.488 224.424 
L 319.488 216.108 
L 343.296 216.108 
L 343.296 224.424 
L 319.488 224.424 
z
" clip-path="url(#p71797d8926)" style="fill: #440256"/>
    <path d="M 343.296 224.424 
L 343.296 216.108 
L 367.104 216.108 
L 367.104 224.424 
L 343.296 224.424 
z
" clip-path="url(#p71797d8926)" style="fill: #481668"/>
    <path d="M 367.104 224.424 
L 367.104 216.108 
L 390.912 216.108 
L 390.912 224.424 
L 367.104 224.424 
z
" clip-path="url(#p71797d8926)" style="fill: #481d6f"/>
    <path d="M 390.912 224.424 
L 390.912 216.108 
L 414.72 216.108 
L 414.72 224.424 
L 390.912 224.424 
z
" clip-path="url(#p71797d8926)" style="fill: #433d84"/>
    <path d="M 57.6 216.108 
L 57.6 207.792 
L 81.408 207.792 
L 81.408 216.108 
L 57.6 216.108 
z
" clip-path="url(#p71797d8926)" style="fill: #375a8c"/>
    <path d="M 81.408 216.108 
L 81.408 207.792 
L 105.216 207.792 
L 105.216 216.108 
L 81.408 216.108 
z
" clip-path="url(#p71797d8926)" style="fill: #470d60"/>
    <path d="M 105.216 216.108 
L 105.216 207.792 
L 129.024 207.792 
L 129.024 216.108 
L 105.216 216.108 
z
" clip-path="url(#p71797d8926)" style="fill: #440256"/>
    <path d="M 129.024 216.108 
L 129.024 207.792 
L 152.832 207.792 
L 152.832 216.108 
L 129.024 216.108 
z
" clip-path="url(#p71797d8926)" style="fill: #48186a"/>
    <path d="M 152.832 216.108 
L 152.832 207.792 
L 176.64 207.792 
L 176.64 216.108 
L 152.832 216.108 
z
" clip-path="url(#p71797d8926)" style="fill: #481668"/>
    <path d="M 176.64 216.108 
L 176.64 207.792 
L 200.448 207.792 
L 200.448 216.108 
L 176.64 216.108 
z
" clip-path="url(#p71797d8926)" style="fill: #440154"/>
    <path d="M 200.448 216.108 
L 200.448 207.792 
L 224.256 207.792 
L 224.256 216.108 
L 200.448 216.108 
z
" clip-path="url(#p71797d8926)" style="fill: #481c6e"/>
    <path d="M 224.256 216.108 
L 224.256 207.792 
L 248.064 207.792 
L 248.064 216.108 
L 224.256 216.108 
z
" clip-path="url(#p71797d8926)" style="fill: #440154"/>
    <path d="M 248.064 216.108 
L 248.064 207.792 
L 271.872 207.792 
L 271.872 216.108 
L 248.064 216.108 
z
" clip-path="url(#p71797d8926)" style="fill: #481b6d"/>
    <path d="M 271.872 216.108 
L 271.872 207.792 
L 295.68 207.792 
L 295.68 216.108 
L 271.872 216.108 
z
" clip-path="url(#p71797d8926)" style="fill: #440154"/>
    <path d="M 295.68 216.108 
L 295.68 207.792 
L 319.488 207.792 
L 319.488 216.108 
L 295.68 216.108 
z
" clip-path="url(#p71797d8926)" style="fill: #481668"/>
    <path d="M 319.488 216.108 
L 319.488 207.792 
L 343.296 207.792 
L 343.296 216.108 
L 319.488 216.108 
z
" clip-path="url(#p71797d8926)" style="fill: #481769"/>
    <path d="M 343.296 216.108 
L 343.296 207.792 
L 367.104 207.792 
L 367.104 216.108 
L 343.296 216.108 
z
" clip-path="url(#p71797d8926)" style="fill: #440256"/>
    <path d="M 367.104 216.108 
L 367.104 207.792 
L 390.912 207.792 
L 390.912 216.108 
L 367.104 216.108 
z
" clip-path="url(#p71797d8926)" style="fill: #460a5d"/>
    <path d="M 390.912 216.108 
L 390.912 207.792 
L 414.72 207.792 
L 414.72 216.108 
L 390.912 216.108 
z
" clip-path="url(#p71797d8926)" style="fill: #3a548c"/>
    <path d="M 57.6 207.792 
L 57.6 199.476 
L 81.408 199.476 
L 81.408 207.792 
L 57.6 207.792 
z
" clip-path="url(#p71797d8926)" style="fill: #33628d"/>
    <path d="M 81.408 207.792 
L 81.408 199.476 
L 105.216 199.476 
L 105.216 207.792 
L 81.408 207.792 
z
" clip-path="url(#p71797d8926)" style="fill: #440154"/>
    <path d="M 105.216 207.792 
L 105.216 199.476 
L 129.024 199.476 
L 129.024 207.792 
L 105.216 207.792 
z
" clip-path="url(#p71797d8926)" style="fill: #440154"/>
    <path d="M 129.024 207.792 
L 129.024 199.476 
L 152.832 199.476 
L 152.832 207.792 
L 129.024 207.792 
z
" clip-path="url(#p71797d8926)" style="fill: #482475"/>
    <path d="M 152.832 207.792 
L 152.832 199.476 
L 176.64 199.476 
L 176.64 207.792 
L 152.832 207.792 
z
" clip-path="url(#p71797d8926)" style="fill: #440256"/>
    <path d="M 176.64 207.792 
L 176.64 199.476 
L 200.448 199.476 
L 200.448 207.792 
L 176.64 207.792 
z
" clip-path="url(#p71797d8926)" style="fill: #471164"/>
    <path d="M 200.448 207.792 
L 200.448 199.476 
L 224.256 199.476 
L 224.256 207.792 
L 200.448 207.792 
z
" clip-path="url(#p71797d8926)" style="fill: #470d60"/>
    <path d="M 224.256 207.792 
L 224.256 199.476 
L 248.064 199.476 
L 248.064 207.792 
L 224.256 207.792 
z
" clip-path="url(#p71797d8926)" style="fill: #470d60"/>
    <path d="M 248.064 207.792 
L 248.064 199.476 
L 271.872 199.476 
L 271.872 207.792 
L 248.064 207.792 
z
" clip-path="url(#p71797d8926)" style="fill: #470d60"/>
    <path d="M 271.872 207.792 
L 271.872 199.476 
L 295.68 199.476 
L 295.68 207.792 
L 271.872 207.792 
z
" clip-path="url(#p71797d8926)" style="fill: #471164"/>
    <path d="M 295.68 207.792 
L 295.68 199.476 
L 319.488 199.476 
L 319.488 207.792 
L 295.68 207.792 
z
" clip-path="url(#p71797d8926)" style="fill: #440256"/>
    <path d="M 319.488 207.792 
L 319.488 199.476 
L 343.296 199.476 
L 343.296 207.792 
L 319.488 207.792 
z
" clip-path="url(#p71797d8926)" style="fill: #482374"/>
    <path d="M 343.296 207.792 
L 343.296 199.476 
L 367.104 199.476 
L 367.104 207.792 
L 343.296 207.792 
z
" clip-path="url(#p71797d8926)" style="fill: #440256"/>
    <path d="M 367.104 207.792 
L 367.104 199.476 
L 390.912 199.476 
L 390.912 207.792 
L 367.104 207.792 
z
" clip-path="url(#p71797d8926)" style="fill: #440154"/>
    <path d="M 390.912 207.792 
L 390.912 199.476 
L 414.72 199.476 
L 414.72 207.792 
L 390.912 207.792 
z
" clip-path="url(#p71797d8926)" style="fill: #365c8d"/>
    <path d="M 57.6 199.476 
L 57.6 191.16 
L 81.408 191.16 
L 81.408 199.476 
L 57.6 199.476 
z
" clip-path="url(#p71797d8926)" style="fill: #3c508b"/>
    <path d="M 81.408 199.476 
L 81.408 191.16 
L 105.216 191.16 
L 105.216 199.476 
L 81.408 199.476 
z
" clip-path="url(#p71797d8926)" style="fill: #481f70"/>
    <path d="M 105.216 199.476 
L 105.216 191.16 
L 129.024 191.16 
L 129.024 199.476 
L 105.216 199.476 
z
" clip-path="url(#p71797d8926)" style="fill: #450457"/>
    <path d="M 129.024 199.476 
L 129.024 191.16 
L 152.832 191.16 
L 152.832 199.476 
L 129.024 199.476 
z
" clip-path="url(#p71797d8926)" style="fill: #481a6c"/>
    <path d="M 152.832 199.476 
L 152.832 191.16 
L 176.64 191.16 
L 176.64 199.476 
L 152.832 199.476 
z
" clip-path="url(#p71797d8926)" style="fill: #46085c"/>
    <path d="M 176.64 199.476 
L 176.64 191.16 
L 200.448 191.16 
L 200.448 199.476 
L 176.64 199.476 
z
" clip-path="url(#p71797d8926)" style="fill: #481668"/>
    <path d="M 200.448 199.476 
L 200.448 191.16 
L 224.256 191.16 
L 224.256 199.476 
L 200.448 199.476 
z
" clip-path="url(#p71797d8926)" style="fill: #440154"/>
    <path d="M 224.256 199.476 
L 224.256 191.16 
L 248.064 191.16 
L 248.064 199.476 
L 224.256 199.476 
z
" clip-path="url(#p71797d8926)" style="fill: #48186a"/>
    <path d="M 248.064 199.476 
L 248.064 191.16 
L 271.872 191.16 
L 271.872 199.476 
L 248.064 199.476 
z
" clip-path="url(#p71797d8926)" style="fill: #440154"/>
    <path d="M 271.872 199.476 
L 271.872 191.16 
L 295.68 191.16 
L 295.68 199.476 
L 271.872 199.476 
z
" clip-path="url(#p71797d8926)" style="fill: #481467"/>
    <path d="M 295.68 199.476 
L 295.68 191.16 
L 319.488 191.16 
L 319.488 199.476 
L 295.68 199.476 
z
" clip-path="url(#p71797d8926)" style="fill: #46075a"/>
    <path d="M 319.488 199.476 
L 319.488 191.16 
L 343.296 191.16 
L 343.296 199.476 
L 319.488 199.476 
z
" clip-path="url(#p71797d8926)" style="fill: #48186a"/>
    <path d="M 343.296 199.476 
L 343.296 191.16 
L 367.104 191.16 
L 367.104 199.476 
L 343.296 199.476 
z
" clip-path="url(#p71797d8926)" style="fill: #450559"/>
    <path d="M 367.104 199.476 
L 367.104 191.16 
L 390.912 191.16 
L 390.912 199.476 
L 367.104 199.476 
z
" clip-path="url(#p71797d8926)" style="fill: #481d6f"/>
    <path d="M 390.912 199.476 
L 390.912 191.16 
L 414.72 191.16 
L 414.72 199.476 
L 390.912 199.476 
z
" clip-path="url(#p71797d8926)" style="fill: #3e4989"/>
    <path d="M 57.6 191.16 
L 57.6 182.844 
L 81.408 182.844 
L 81.408 191.16 
L 57.6 191.16 
z
" clip-path="url(#p71797d8926)" style="fill: #482979"/>
    <path d="M 81.408 191.16 
L 81.408 182.844 
L 105.216 182.844 
L 105.216 191.16 
L 81.408 191.16 
z
" clip-path="url(#p71797d8926)" style="fill: #3d4e8a"/>
    <path d="M 105.216 191.16 
L 105.216 182.844 
L 129.024 182.844 
L 129.024 191.16 
L 105.216 191.16 
z
" clip-path="url(#p71797d8926)" style="fill: #440154"/>
    <path d="M 129.024 191.16 
L 129.024 182.844 
L 152.832 182.844 
L 152.832 191.16 
L 129.024 191.16 
z
" clip-path="url(#p71797d8926)" style="fill: #46075a"/>
    <path d="M 152.832 191.16 
L 152.832 182.844 
L 176.64 182.844 
L 176.64 191.16 
L 152.832 191.16 
z
" clip-path="url(#p71797d8926)" style="fill: #482071"/>
    <path d="M 176.64 191.16 
L 176.64 182.844 
L 200.448 182.844 
L 200.448 191.16 
L 176.64 191.16 
z
" clip-path="url(#p71797d8926)" style="fill: #450559"/>
    <path d="M 200.448 191.16 
L 200.448 182.844 
L 224.256 182.844 
L 224.256 191.16 
L 200.448 191.16 
z
" clip-path="url(#p71797d8926)" style="fill: #460a5d"/>
    <path d="M 224.256 191.16 
L 224.256 182.844 
L 248.064 182.844 
L 248.064 191.16 
L 224.256 191.16 
z
" clip-path="url(#p71797d8926)" style="fill: #470d60"/>
    <path d="M 248.064 191.16 
L 248.064 182.844 
L 271.872 182.844 
L 271.872 191.16 
L 248.064 191.16 
z
" clip-path="url(#p71797d8926)" style="fill: #460b5e"/>
    <path d="M 271.872 191.16 
L 271.872 182.844 
L 295.68 182.844 
L 295.68 191.16 
L 271.872 191.16 
z
" clip-path="url(#p71797d8926)" style="fill: #450457"/>
    <path d="M 295.68 191.16 
L 295.68 182.844 
L 319.488 182.844 
L 319.488 191.16 
L 295.68 191.16 
z
" clip-path="url(#p71797d8926)" style="fill: #481f70"/>
    <path d="M 319.488 191.16 
L 319.488 182.844 
L 343.296 182.844 
L 343.296 191.16 
L 319.488 191.16 
z
" clip-path="url(#p71797d8926)" style="fill: #46075a"/>
    <path d="M 343.296 191.16 
L 343.296 182.844 
L 367.104 182.844 
L 367.104 191.16 
L 343.296 191.16 
z
" clip-path="url(#p71797d8926)" style="fill: #440154"/>
    <path d="M 367.104 191.16 
L 367.104 182.844 
L 390.912 182.844 
L 390.912 191.16 
L 367.104 191.16 
z
" clip-path="url(#p71797d8926)" style="fill: #3e4a89"/>
    <path d="M 390.912 191.16 
L 390.912 182.844 
L 414.72 182.844 
L 414.72 191.16 
L 390.912 191.16 
z
" clip-path="url(#p71797d8926)" style="fill: #482475"/>
    <path d="M 57.6 182.844 
L 57.6 174.528 
L 81.408 174.528 
L 81.408 182.844 
L 57.6 182.844 
z
" clip-path="url(#p71797d8926)" style="fill: #46075a"/>
    <path d="M 81.408 182.844 
L 81.408 174.528 
L 105.216 174.528 
L 105.216 182.844 
L 81.408 182.844 
z
" clip-path="url(#p71797d8926)" style="fill: #33628d"/>
    <path d="M 105.216 182.844 
L 105.216 174.528 
L 129.024 174.528 
L 129.024 182.844 
L 105.216 182.844 
z
" clip-path="url(#p71797d8926)" style="fill: #46085c"/>
    <path d="M 129.024 182.844 
L 129.024 174.528 
L 152.832 174.528 
L 152.832 182.844 
L 129.024 182.844 
z
" clip-path="url(#p71797d8926)" style="fill: #440154"/>
    <path d="M 152.832 182.844 
L 152.832 174.528 
L 176.64 174.528 
L 176.64 182.844 
L 152.832 182.844 
z
" clip-path="url(#p71797d8926)" style="fill: #482878"/>
    <path d="M 176.64 182.844 
L 176.64 174.528 
L 200.448 174.528 
L 200.448 182.844 
L 176.64 182.844 
z
" clip-path="url(#p71797d8926)" style="fill: #450457"/>
    <path d="M 200.448 182.844 
L 200.448 174.528 
L 224.256 174.528 
L 224.256 182.844 
L 200.448 182.844 
z
" clip-path="url(#p71797d8926)" style="fill: #471164"/>
    <path d="M 224.256 182.844 
L 224.256 174.528 
L 248.064 174.528 
L 248.064 182.844 
L 224.256 182.844 
z
" clip-path="url(#p71797d8926)" style="fill: #440154"/>
    <path d="M 248.064 182.844 
L 248.064 174.528 
L 271.872 174.528 
L 271.872 182.844 
L 248.064 182.844 
z
" clip-path="url(#p71797d8926)" style="fill: #471164"/>
    <path d="M 271.872 182.844 
L 271.872 174.528 
L 295.68 174.528 
L 295.68 182.844 
L 271.872 182.844 
z
" clip-path="url(#p71797d8926)" style="fill: #450457"/>
    <path d="M 295.68 182.844 
L 295.68 174.528 
L 319.488 174.528 
L 319.488 182.844 
L 295.68 182.844 
z
" clip-path="url(#p71797d8926)" style="fill: #482576"/>
    <path d="M 319.488 182.844 
L 319.488 174.528 
L 343.296 174.528 
L 343.296 182.844 
L 319.488 182.844 
z
" clip-path="url(#p71797d8926)" style="fill: #440154"/>
    <path d="M 343.296 182.844 
L 343.296 174.528 
L 367.104 174.528 
L 367.104 182.844 
L 343.296 182.844 
z
" clip-path="url(#p71797d8926)" style="fill: #46075a"/>
    <path d="M 367.104 182.844 
L 367.104 174.528 
L 390.912 174.528 
L 390.912 182.844 
L 367.104 182.844 
z
" clip-path="url(#p71797d8926)" style="fill: #355f8d"/>
    <path d="M 390.912 182.844 
L 390.912 174.528 
L 414.72 174.528 
L 414.72 182.844 
L 390.912 182.844 
z
" clip-path="url(#p71797d8926)" style="fill: #450559"/>
    <path d="M 57.6 174.528 
L 57.6 166.212 
L 81.408 166.212 
L 81.408 174.528 
L 57.6 174.528 
z
" clip-path="url(#p71797d8926)" style="fill: #440256"/>
    <path d="M 81.408 174.528 
L 81.408 166.212 
L 105.216 166.212 
L 105.216 174.528 
L 81.408 174.528 
z
" clip-path="url(#p71797d8926)" style="fill: #3e4989"/>
    <path d="M 105.216 174.528 
L 105.216 166.212 
L 129.024 166.212 
L 129.024 174.528 
L 105.216 174.528 
z
" clip-path="url(#p71797d8926)" style="fill: #472c7a"/>
    <path d="M 129.024 174.528 
L 129.024 166.212 
L 152.832 166.212 
L 152.832 174.528 
L 129.024 174.528 
z
" clip-path="url(#p71797d8926)" style="fill: #440154"/>
    <path d="M 152.832 174.528 
L 152.832 166.212 
L 176.64 166.212 
L 176.64 174.528 
L 152.832 174.528 
z
" clip-path="url(#p71797d8926)" style="fill: #481a6c"/>
    <path d="M 176.64 174.528 
L 176.64 166.212 
L 200.448 166.212 
L 200.448 174.528 
L 176.64 174.528 
z
" clip-path="url(#p71797d8926)" style="fill: #481d6f"/>
    <path d="M 200.448 174.528 
L 200.448 166.212 
L 224.256 166.212 
L 224.256 174.528 
L 200.448 174.528 
z
" clip-path="url(#p71797d8926)" style="fill: #450559"/>
    <path d="M 224.256 174.528 
L 224.256 166.212 
L 248.064 166.212 
L 248.064 174.528 
L 224.256 174.528 
z
" clip-path="url(#p71797d8926)" style="fill: #450559"/>
    <path d="M 248.064 174.528 
L 248.064 166.212 
L 271.872 166.212 
L 271.872 174.528 
L 248.064 174.528 
z
" clip-path="url(#p71797d8926)" style="fill: #450559"/>
    <path d="M 271.872 174.528 
L 271.872 166.212 
L 295.68 166.212 
L 295.68 174.528 
L 271.872 174.528 
z
" clip-path="url(#p71797d8926)" style="fill: #481c6e"/>
    <path d="M 295.68 174.528 
L 295.68 166.212 
L 319.488 166.212 
L 319.488 174.528 
L 295.68 174.528 
z
" clip-path="url(#p71797d8926)" style="fill: #481769"/>
    <path d="M 319.488 174.528 
L 319.488 166.212 
L 343.296 166.212 
L 343.296 174.528 
L 319.488 174.528 
z
" clip-path="url(#p71797d8926)" style="fill: #440154"/>
    <path d="M 343.296 174.528 
L 343.296 166.212 
L 367.104 166.212 
L 367.104 174.528 
L 343.296 174.528 
z
" clip-path="url(#p71797d8926)" style="fill: #482677"/>
    <path d="M 367.104 174.528 
L 367.104 166.212 
L 390.912 166.212 
L 390.912 174.528 
L 367.104 174.528 
z
" clip-path="url(#p71797d8926)" style="fill: #3f4788"/>
    <path d="M 390.912 174.528 
L 390.912 166.212 
L 414.72 166.212 
L 414.72 174.528 
L 390.912 174.528 
z
" clip-path="url(#p71797d8926)" style="fill: #450457"/>
    <path d="M 57.6 166.212 
L 57.6 157.896 
L 81.408 157.896 
L 81.408 166.212 
L 57.6 166.212 
z
" clip-path="url(#p71797d8926)" style="fill: #481467"/>
    <path d="M 81.408 166.212 
L 81.408 157.896 
L 105.216 157.896 
L 105.216 166.212 
L 81.408 166.212 
z
" clip-path="url(#p71797d8926)" style="fill: #481668"/>
    <path d="M 105.216 166.212 
L 105.216 157.896 
L 129.024 157.896 
L 129.024 166.212 
L 105.216 166.212 
z
" clip-path="url(#p71797d8926)" style="fill: #3e4a89"/>
    <path d="M 129.024 166.212 
L 129.024 157.896 
L 152.832 157.896 
L 152.832 166.212 
L 129.024 166.212 
z
" clip-path="url(#p71797d8926)" style="fill: #450457"/>
    <path d="M 152.832 166.212 
L 152.832 157.896 
L 176.64 157.896 
L 176.64 166.212 
L 152.832 166.212 
z
" clip-path="url(#p71797d8926)" style="fill: #46085c"/>
    <path d="M 176.64 166.212 
L 176.64 157.896 
L 200.448 157.896 
L 200.448 166.212 
L 176.64 166.212 
z
" clip-path="url(#p71797d8926)" style="fill: #472f7d"/>
    <path d="M 200.448 166.212 
L 200.448 157.896 
L 224.256 157.896 
L 224.256 166.212 
L 200.448 166.212 
z
" clip-path="url(#p71797d8926)" style="fill: #440256"/>
    <path d="M 224.256 166.212 
L 224.256 157.896 
L 248.064 157.896 
L 248.064 166.212 
L 224.256 166.212 
z
" clip-path="url(#p71797d8926)" style="fill: #46075a"/>
    <path d="M 248.064 166.212 
L 248.064 157.896 
L 271.872 157.896 
L 271.872 166.212 
L 248.064 166.212 
z
" clip-path="url(#p71797d8926)" style="fill: #440154"/>
    <path d="M 271.872 166.212 
L 271.872 157.896 
L 295.68 157.896 
L 295.68 166.212 
L 271.872 166.212 
z
" clip-path="url(#p71797d8926)" style="fill: #472f7d"/>
    <path d="M 295.68 166.212 
L 295.68 157.896 
L 319.488 157.896 
L 319.488 166.212 
L 295.68 166.212 
z
" clip-path="url(#p71797d8926)" style="fill: #46075a"/>
    <path d="M 319.488 166.212 
L 319.488 157.896 
L 343.296 157.896 
L 343.296 166.212 
L 319.488 166.212 
z
" clip-path="url(#p71797d8926)" style="fill: #450457"/>
    <path d="M 343.296 166.212 
L 343.296 157.896 
L 367.104 157.896 
L 367.104 166.212 
L 343.296 166.212 
z
" clip-path="url(#p71797d8926)" style="fill: #404588"/>
    <path d="M 367.104 166.212 
L 367.104 157.896 
L 390.912 157.896 
L 390.912 166.212 
L 367.104 166.212 
z
" clip-path="url(#p71797d8926)" style="fill: #481668"/>
    <path d="M 390.912 166.212 
L 390.912 157.896 
L 414.72 157.896 
L 414.72 166.212 
L 390.912 166.212 
z
" clip-path="url(#p71797d8926)" style="fill: #481467"/>
    <path d="M 57.6 157.896 
L 57.6 149.58 
L 81.408 149.58 
L 81.408 157.896 
L 57.6 157.896 
z
" clip-path="url(#p71797d8926)" style="fill: #481b6d"/>
    <path d="M 81.408 157.896 
L 81.408 149.58 
L 105.216 149.58 
L 105.216 157.896 
L 81.408 157.896 
z
" clip-path="url(#p71797d8926)" style="fill: #440154"/>
    <path d="M 105.216 157.896 
L 105.216 149.58 
L 129.024 149.58 
L 129.024 157.896 
L 105.216 157.896 
z
" clip-path="url(#p71797d8926)" style="fill: #414487"/>
    <path d="M 129.024 157.896 
L 129.024 149.58 
L 152.832 149.58 
L 152.832 157.896 
L 129.024 157.896 
z
" clip-path="url(#p71797d8926)" style="fill: #481668"/>
    <path d="M 152.832 157.896 
L 152.832 149.58 
L 176.64 149.58 
L 176.64 157.896 
L 152.832 157.896 
z
" clip-path="url(#p71797d8926)" style="fill: #440256"/>
    <path d="M 176.64 157.896 
L 176.64 149.58 
L 200.448 149.58 
L 200.448 157.896 
L 176.64 157.896 
z
" clip-path="url(#p71797d8926)" style="fill: #472a7a"/>
    <path d="M 200.448 157.896 
L 200.448 149.58 
L 224.256 149.58 
L 224.256 157.896 
L 200.448 157.896 
z
" clip-path="url(#p71797d8926)" style="fill: #48186a"/>
    <path d="M 224.256 157.896 
L 224.256 149.58 
L 248.064 149.58 
L 248.064 157.896 
L 224.256 157.896 
z
" clip-path="url(#p71797d8926)" style="fill: #440154"/>
    <path d="M 248.064 157.896 
L 248.064 149.58 
L 271.872 149.58 
L 271.872 157.896 
L 248.064 157.896 
z
" clip-path="url(#p71797d8926)" style="fill: #481467"/>
    <path d="M 271.872 157.896 
L 271.872 149.58 
L 295.68 149.58 
L 295.68 157.896 
L 271.872 157.896 
z
" clip-path="url(#p71797d8926)" style="fill: #482979"/>
    <path d="M 295.68 157.896 
L 295.68 149.58 
L 319.488 149.58 
L 319.488 157.896 
L 295.68 157.896 
z
" clip-path="url(#p71797d8926)" style="fill: #440154"/>
    <path d="M 319.488 157.896 
L 319.488 149.58 
L 343.296 149.58 
L 343.296 157.896 
L 319.488 157.896 
z
" clip-path="url(#p71797d8926)" style="fill: #481668"/>
    <path d="M 343.296 157.896 
L 343.296 149.58 
L 367.104 149.58 
L 367.104 157.896 
L 343.296 157.896 
z
" clip-path="url(#p71797d8926)" style="fill: #423f85"/>
    <path d="M 367.104 157.896 
L 367.104 149.58 
L 390.912 149.58 
L 390.912 157.896 
L 367.104 157.896 
z
" clip-path="url(#p71797d8926)" style="fill: #440154"/>
    <path d="M 390.912 157.896 
L 390.912 149.58 
L 414.72 149.58 
L 414.72 157.896 
L 390.912 157.896 
z
" clip-path="url(#p71797d8926)" style="fill: #481a6c"/>
    <path d="M 57.6 149.58 
L 57.6 141.264 
L 81.408 141.264 
L 81.408 149.58 
L 57.6 149.58 
z
" clip-path="url(#p71797d8926)" style="fill: #471063"/>
    <path d="M 81.408 149.58 
L 81.408 141.264 
L 105.216 141.264 
L 105.216 149.58 
L 81.408 149.58 
z
" clip-path="url(#p71797d8926)" style="fill: #481d6f"/>
    <path d="M 105.216 149.58 
L 105.216 141.264 
L 129.024 141.264 
L 129.024 149.58 
L 105.216 149.58 
z
" clip-path="url(#p71797d8926)" style="fill: #48186a"/>
    <path d="M 129.024 149.58 
L 129.024 141.264 
L 152.832 141.264 
L 152.832 149.58 
L 129.024 149.58 
z
" clip-path="url(#p71797d8926)" style="fill: #472d7b"/>
    <path d="M 152.832 149.58 
L 152.832 141.264 
L 176.64 141.264 
L 176.64 149.58 
L 152.832 149.58 
z
" clip-path="url(#p71797d8926)" style="fill: #440256"/>
    <path d="M 176.64 149.58 
L 176.64 141.264 
L 200.448 141.264 
L 200.448 149.58 
L 176.64 149.58 
z
" clip-path="url(#p71797d8926)" style="fill: #481769"/>
    <path d="M 200.448 149.58 
L 200.448 141.264 
L 224.256 141.264 
L 224.256 149.58 
L 200.448 149.58 
z
" clip-path="url(#p71797d8926)" style="fill: #482878"/>
    <path d="M 224.256 149.58 
L 224.256 141.264 
L 248.064 141.264 
L 248.064 149.58 
L 224.256 149.58 
z
" clip-path="url(#p71797d8926)" style="fill: #471365"/>
    <path d="M 248.064 149.58 
L 248.064 141.264 
L 271.872 141.264 
L 271.872 149.58 
L 248.064 149.58 
z
" clip-path="url(#p71797d8926)" style="fill: #482374"/>
    <path d="M 271.872 149.58 
L 271.872 141.264 
L 295.68 141.264 
L 295.68 149.58 
L 271.872 149.58 
z
" clip-path="url(#p71797d8926)" style="fill: #481769"/>
    <path d="M 295.68 149.58 
L 295.68 141.264 
L 319.488 141.264 
L 319.488 149.58 
L 295.68 149.58 
z
" clip-path="url(#p71797d8926)" style="fill: #440154"/>
    <path d="M 319.488 149.58 
L 319.488 141.264 
L 343.296 141.264 
L 343.296 149.58 
L 319.488 149.58 
z
" clip-path="url(#p71797d8926)" style="fill: #472d7b"/>
    <path d="M 343.296 149.58 
L 343.296 141.264 
L 367.104 141.264 
L 367.104 149.58 
L 343.296 149.58 
z
" clip-path="url(#p71797d8926)" style="fill: #481769"/>
    <path d="M 367.104 149.58 
L 367.104 141.264 
L 390.912 141.264 
L 390.912 149.58 
L 367.104 149.58 
z
" clip-path="url(#p71797d8926)" style="fill: #481c6e"/>
    <path d="M 390.912 149.58 
L 390.912 141.264 
L 414.72 141.264 
L 414.72 149.58 
L 390.912 149.58 
z
" clip-path="url(#p71797d8926)" style="fill: #470e61"/>
    <path d="M 57.6 141.264 
L 57.6 132.948 
L 81.408 132.948 
L 81.408 141.264 
L 57.6 141.264 
z
" clip-path="url(#p71797d8926)" style="fill: #440256"/>
    <path d="M 81.408 141.264 
L 81.408 132.948 
L 105.216 132.948 
L 105.216 141.264 
L 81.408 141.264 
z
" clip-path="url(#p71797d8926)" style="fill: #46327e"/>
    <path d="M 105.216 141.264 
L 105.216 132.948 
L 129.024 132.948 
L 129.024 141.264 
L 105.216 141.264 
z
" clip-path="url(#p71797d8926)" style="fill: #440154"/>
    <path d="M 129.024 141.264 
L 129.024 132.948 
L 152.832 132.948 
L 152.832 141.264 
L 129.024 141.264 
z
" clip-path="url(#p71797d8926)" style="fill: #472f7d"/>
    <path d="M 152.832 141.264 
L 152.832 132.948 
L 176.64 132.948 
L 176.64 141.264 
L 152.832 141.264 
z
" clip-path="url(#p71797d8926)" style="fill: #46085c"/>
    <path d="M 176.64 141.264 
L 176.64 132.948 
L 200.448 132.948 
L 200.448 141.264 
L 176.64 141.264 
z
" clip-path="url(#p71797d8926)" style="fill: #460b5e"/>
    <path d="M 200.448 141.264 
L 200.448 132.948 
L 224.256 132.948 
L 224.256 141.264 
L 200.448 141.264 
z
" clip-path="url(#p71797d8926)" style="fill: #481d6f"/>
    <path d="M 224.256 141.264 
L 224.256 132.948 
L 248.064 132.948 
L 248.064 141.264 
L 224.256 141.264 
z
" clip-path="url(#p71797d8926)" style="fill: #404688"/>
    <path d="M 248.064 141.264 
L 248.064 132.948 
L 271.872 132.948 
L 271.872 141.264 
L 248.064 141.264 
z
" clip-path="url(#p71797d8926)" style="fill: #481769"/>
    <path d="M 271.872 141.264 
L 271.872 132.948 
L 295.68 132.948 
L 295.68 141.264 
L 271.872 141.264 
z
" clip-path="url(#p71797d8926)" style="fill: #460b5e"/>
    <path d="M 295.68 141.264 
L 295.68 132.948 
L 319.488 132.948 
L 319.488 141.264 
L 295.68 141.264 
z
" clip-path="url(#p71797d8926)" style="fill: #450559"/>
    <path d="M 319.488 141.264 
L 319.488 132.948 
L 343.296 132.948 
L 343.296 141.264 
L 319.488 141.264 
z
" clip-path="url(#p71797d8926)" style="fill: #472e7c"/>
    <path d="M 343.296 141.264 
L 343.296 132.948 
L 367.104 132.948 
L 367.104 141.264 
L 343.296 141.264 
z
" clip-path="url(#p71797d8926)" style="fill: #440154"/>
    <path d="M 367.104 141.264 
L 367.104 132.948 
L 390.912 132.948 
L 390.912 141.264 
L 367.104 141.264 
z
" clip-path="url(#p71797d8926)" style="fill: #46307e"/>
    <path d="M 390.912 141.264 
L 390.912 132.948 
L 414.72 132.948 
L 414.72 141.264 
L 390.912 141.264 
z
" clip-path="url(#p71797d8926)" style="fill: #440154"/>
    <path d="M 57.6 132.948 
L 57.6 124.632 
L 81.408 124.632 
L 81.408 132.948 
L 57.6 132.948 
z
" clip-path="url(#p71797d8926)" style="fill: #440256"/>
    <path d="M 81.408 132.948 
L 81.408 124.632 
L 105.216 124.632 
L 105.216 132.948 
L 81.408 132.948 
z
" clip-path="url(#p71797d8926)" style="fill: #482374"/>
    <path d="M 105.216 132.948 
L 105.216 124.632 
L 129.024 124.632 
L 129.024 132.948 
L 105.216 132.948 
z
" clip-path="url(#p71797d8926)" style="fill: #481f70"/>
    <path d="M 129.024 132.948 
L 129.024 124.632 
L 152.832 124.632 
L 152.832 132.948 
L 129.024 132.948 
z
" clip-path="url(#p71797d8926)" style="fill: #481668"/>
    <path d="M 152.832 132.948 
L 152.832 124.632 
L 176.64 124.632 
L 176.64 132.948 
L 152.832 132.948 
z
" clip-path="url(#p71797d8926)" style="fill: #471063"/>
    <path d="M 176.64 132.948 
L 176.64 124.632 
L 200.448 124.632 
L 200.448 132.948 
L 176.64 132.948 
z
" clip-path="url(#p71797d8926)" style="fill: #460a5d"/>
    <path d="M 200.448 132.948 
L 200.448 124.632 
L 224.256 124.632 
L 224.256 132.948 
L 200.448 132.948 
z
" clip-path="url(#p71797d8926)" style="fill: #46075a"/>
    <path d="M 224.256 132.948 
L 224.256 124.632 
L 248.064 124.632 
L 248.064 132.948 
L 224.256 132.948 
z
" clip-path="url(#p71797d8926)" style="fill: #2c718e"/>
    <path d="M 248.064 132.948 
L 248.064 124.632 
L 271.872 124.632 
L 271.872 132.948 
L 248.064 132.948 
z
" clip-path="url(#p71797d8926)" style="fill: #450457"/>
    <path d="M 271.872 132.948 
L 271.872 124.632 
L 295.68 124.632 
L 295.68 132.948 
L 271.872 132.948 
z
" clip-path="url(#p71797d8926)" style="fill: #460a5d"/>
    <path d="M 295.68 132.948 
L 295.68 124.632 
L 319.488 124.632 
L 319.488 132.948 
L 295.68 132.948 
z
" clip-path="url(#p71797d8926)" style="fill: #470d60"/>
    <path d="M 319.488 132.948 
L 319.488 124.632 
L 343.296 124.632 
L 343.296 132.948 
L 319.488 132.948 
z
" clip-path="url(#p71797d8926)" style="fill: #481668"/>
    <path d="M 343.296 132.948 
L 343.296 124.632 
L 367.104 124.632 
L 367.104 132.948 
L 343.296 132.948 
z
" clip-path="url(#p71797d8926)" style="fill: #481d6f"/>
    <path d="M 367.104 132.948 
L 367.104 124.632 
L 390.912 124.632 
L 390.912 132.948 
L 367.104 132.948 
z
" clip-path="url(#p71797d8926)" style="fill: #482374"/>
    <path d="M 390.912 132.948 
L 390.912 124.632 
L 414.72 124.632 
L 414.72 132.948 
L 390.912 132.948 
z
" clip-path="url(#p71797d8926)" style="fill: #440256"/>
    <path d="M 57.6 124.632 
L 57.6 116.316 
L 81.408 116.316 
L 81.408 124.632 
L 57.6 124.632 
z
" clip-path="url(#p71797d8926)" style="fill: #460a5d"/>
    <path d="M 81.408 124.632 
L 81.408 116.316 
L 105.216 116.316 
L 105.216 124.632 
L 81.408 124.632 
z
" clip-path="url(#p71797d8926)" style="fill: #450559"/>
    <path d="M 105.216 124.632 
L 105.216 116.316 
L 129.024 116.316 
L 129.024 124.632 
L 105.216 124.632 
z
" clip-path="url(#p71797d8926)" style="fill: #423f85"/>
    <path d="M 129.024 124.632 
L 129.024 116.316 
L 152.832 116.316 
L 152.832 124.632 
L 129.024 124.632 
z
" clip-path="url(#p71797d8926)" style="fill: #440154"/>
    <path d="M 152.832 124.632 
L 152.832 116.316 
L 176.64 116.316 
L 176.64 124.632 
L 152.832 124.632 
z
" clip-path="url(#p71797d8926)" style="fill: #470d60"/>
    <path d="M 176.64 124.632 
L 176.64 116.316 
L 200.448 116.316 
L 200.448 124.632 
L 176.64 124.632 
z
" clip-path="url(#p71797d8926)" style="fill: #471365"/>
    <path d="M 200.448 124.632 
L 200.448 116.316 
L 224.256 116.316 
L 224.256 124.632 
L 200.448 124.632 
z
" clip-path="url(#p71797d8926)" style="fill: #440154"/>
    <path d="M 224.256 124.632 
L 224.256 116.316 
L 248.064 116.316 
L 248.064 124.632 
L 224.256 124.632 
z
" clip-path="url(#p71797d8926)" style="fill: #2a768e"/>
    <path d="M 248.064 124.632 
L 248.064 116.316 
L 271.872 116.316 
L 271.872 124.632 
L 248.064 124.632 
z
" clip-path="url(#p71797d8926)" style="fill: #440256"/>
    <path d="M 271.872 124.632 
L 271.872 116.316 
L 295.68 116.316 
L 295.68 124.632 
L 271.872 124.632 
z
" clip-path="url(#p71797d8926)" style="fill: #471365"/>
    <path d="M 295.68 124.632 
L 295.68 116.316 
L 319.488 116.316 
L 319.488 124.632 
L 295.68 124.632 
z
" clip-path="url(#p71797d8926)" style="fill: #460a5d"/>
    <path d="M 319.488 124.632 
L 319.488 116.316 
L 343.296 116.316 
L 343.296 124.632 
L 319.488 124.632 
z
" clip-path="url(#p71797d8926)" style="fill: #440154"/>
    <path d="M 343.296 124.632 
L 343.296 116.316 
L 367.104 116.316 
L 367.104 124.632 
L 343.296 124.632 
z
" clip-path="url(#p71797d8926)" style="fill: #433d84"/>
    <path d="M 367.104 124.632 
L 367.104 116.316 
L 390.912 116.316 
L 390.912 124.632 
L 367.104 124.632 
z
" clip-path="url(#p71797d8926)" style="fill: #450559"/>
    <path d="M 390.912 124.632 
L 390.912 116.316 
L 414.72 116.316 
L 414.72 124.632 
L 390.912 124.632 
z
" clip-path="url(#p71797d8926)" style="fill: #460a5d"/>
    <path d="M 57.6 116.316 
L 57.6 108 
L 81.408 108 
L 81.408 116.316 
L 57.6 116.316 
z
" clip-path="url(#p71797d8926)" style="fill: #460a5d"/>
    <path d="M 81.408 116.316 
L 81.408 108 
L 105.216 108 
L 105.216 116.316 
L 81.408 116.316 
z
" clip-path="url(#p71797d8926)" style="fill: #450559"/>
    <path d="M 105.216 116.316 
L 105.216 108 
L 129.024 108 
L 129.024 116.316 
L 105.216 116.316 
z
" clip-path="url(#p71797d8926)" style="fill: #453581"/>
    <path d="M 129.024 116.316 
L 129.024 108 
L 152.832 108 
L 152.832 116.316 
L 129.024 116.316 
z
" clip-path="url(#p71797d8926)" style="fill: #470e61"/>
    <path d="M 152.832 116.316 
L 152.832 108 
L 176.64 108 
L 176.64 116.316 
L 152.832 116.316 
z
" clip-path="url(#p71797d8926)" style="fill: #440154"/>
    <path d="M 176.64 116.316 
L 176.64 108 
L 200.448 108 
L 200.448 116.316 
L 176.64 116.316 
z
" clip-path="url(#p71797d8926)" style="fill: #482475"/>
    <path d="M 200.448 116.316 
L 200.448 108 
L 224.256 108 
L 224.256 116.316 
L 200.448 116.316 
z
" clip-path="url(#p71797d8926)" style="fill: #460b5e"/>
    <path d="M 224.256 116.316 
L 224.256 108 
L 248.064 108 
L 248.064 116.316 
L 224.256 116.316 
z
" clip-path="url(#p71797d8926)" style="fill: #38598c"/>
    <path d="M 248.064 116.316 
L 248.064 108 
L 271.872 108 
L 271.872 116.316 
L 248.064 116.316 
z
" clip-path="url(#p71797d8926)" style="fill: #471164"/>
    <path d="M 271.872 116.316 
L 271.872 108 
L 295.68 108 
L 295.68 116.316 
L 271.872 116.316 
z
" clip-path="url(#p71797d8926)" style="fill: #482475"/>
    <path d="M 295.68 116.316 
L 295.68 108 
L 319.488 108 
L 319.488 116.316 
L 295.68 116.316 
z
" clip-path="url(#p71797d8926)" style="fill: #440154"/>
    <path d="M 319.488 116.316 
L 319.488 108 
L 343.296 108 
L 343.296 116.316 
L 319.488 116.316 
z
" clip-path="url(#p71797d8926)" style="fill: #470e61"/>
    <path d="M 343.296 116.316 
L 343.296 108 
L 367.104 108 
L 367.104 116.316 
L 343.296 116.316 
z
" clip-path="url(#p71797d8926)" style="fill: #46337f"/>
    <path d="M 367.104 116.316 
L 367.104 108 
L 390.912 108 
L 390.912 116.316 
L 367.104 116.316 
z
" clip-path="url(#p71797d8926)" style="fill: #450559"/>
    <path d="M 390.912 116.316 
L 390.912 108 
L 414.72 108 
L 414.72 116.316 
L 390.912 116.316 
z
" clip-path="url(#p71797d8926)" style="fill: #460a5d"/>
    <path d="M 57.6 108 
L 57.6 99.684 
L 81.408 99.684 
L 81.408 108 
L 57.6 108 
z
" clip-path="url(#p71797d8926)" style="fill: #440256"/>
    <path d="M 81.408 108 
L 81.408 99.684 
L 105.216 99.684 
L 105.216 108 
L 81.408 108 
z
" clip-path="url(#p71797d8926)" style="fill: #481f70"/>
    <path d="M 105.216 108 
L 105.216 99.684 
L 129.024 99.684 
L 129.024 108 
L 105.216 108 
z
" clip-path="url(#p71797d8926)" style="fill: #471063"/>
    <path d="M 129.024 108 
L 129.024 99.684 
L 152.832 99.684 
L 152.832 108 
L 129.024 108 
z
" clip-path="url(#p71797d8926)" style="fill: #481d6f"/>
    <path d="M 152.832 108 
L 152.832 99.684 
L 176.64 99.684 
L 176.64 108 
L 152.832 108 
z
" clip-path="url(#p71797d8926)" style="fill: #471063"/>
    <path d="M 176.64 108 
L 176.64 99.684 
L 200.448 99.684 
L 200.448 108 
L 176.64 108 
z
" clip-path="url(#p71797d8926)" style="fill: #472f7d"/>
    <path d="M 200.448 108 
L 200.448 99.684 
L 224.256 99.684 
L 224.256 108 
L 200.448 108 
z
" clip-path="url(#p71797d8926)" style="fill: #471063"/>
    <path d="M 224.256 108 
L 224.256 99.684 
L 248.064 99.684 
L 248.064 108 
L 224.256 108 
z
" clip-path="url(#p71797d8926)" style="fill: #472d7b"/>
    <path d="M 248.064 108 
L 248.064 99.684 
L 271.872 99.684 
L 271.872 108 
L 248.064 108 
z
" clip-path="url(#p71797d8926)" style="fill: #481668"/>
    <path d="M 271.872 108 
L 271.872 99.684 
L 295.68 99.684 
L 295.68 108 
L 271.872 108 
z
" clip-path="url(#p71797d8926)" style="fill: #472f7d"/>
    <path d="M 295.68 108 
L 295.68 99.684 
L 319.488 99.684 
L 319.488 108 
L 295.68 108 
z
" clip-path="url(#p71797d8926)" style="fill: #471164"/>
    <path d="M 319.488 108 
L 319.488 99.684 
L 343.296 99.684 
L 343.296 108 
L 319.488 108 
z
" clip-path="url(#p71797d8926)" style="fill: #481c6e"/>
    <path d="M 343.296 108 
L 343.296 99.684 
L 367.104 99.684 
L 367.104 108 
L 343.296 108 
z
" clip-path="url(#p71797d8926)" style="fill: #471063"/>
    <path d="M 367.104 108 
L 367.104 99.684 
L 390.912 99.684 
L 390.912 108 
L 367.104 108 
z
" clip-path="url(#p71797d8926)" style="fill: #481d6f"/>
    <path d="M 390.912 108 
L 390.912 99.684 
L 414.72 99.684 
L 414.72 108 
L 390.912 108 
z
" clip-path="url(#p71797d8926)" style="fill: #440256"/>
    <path d="M 57.6 99.684 
L 57.6 91.368 
L 81.408 91.368 
L 81.408 99.684 
L 57.6 99.684 
z
" clip-path="url(#p71797d8926)" style="fill: #440154"/>
    <path d="M 81.408 99.684 
L 81.408 91.368 
L 105.216 91.368 
L 105.216 99.684 
L 81.408 99.684 
z
" clip-path="url(#p71797d8926)" style="fill: #482878"/>
    <path d="M 105.216 99.684 
L 105.216 91.368 
L 129.024 91.368 
L 129.024 99.684 
L 105.216 99.684 
z
" clip-path="url(#p71797d8926)" style="fill: #440154"/>
    <path d="M 129.024 99.684 
L 129.024 91.368 
L 152.832 91.368 
L 152.832 99.684 
L 129.024 99.684 
z
" clip-path="url(#p71797d8926)" style="fill: #470d60"/>
    <path d="M 152.832 99.684 
L 152.832 91.368 
L 176.64 91.368 
L 176.64 99.684 
L 152.832 99.684 
z
" clip-path="url(#p71797d8926)" style="fill: #424186"/>
    <path d="M 176.64 99.684 
L 176.64 91.368 
L 200.448 91.368 
L 200.448 99.684 
L 176.64 99.684 
z
" clip-path="url(#p71797d8926)" style="fill: #482576"/>
    <path d="M 200.448 99.684 
L 200.448 91.368 
L 224.256 91.368 
L 224.256 99.684 
L 200.448 99.684 
z
" clip-path="url(#p71797d8926)" style="fill: #470d60"/>
    <path d="M 224.256 99.684 
L 224.256 91.368 
L 248.064 91.368 
L 248.064 99.684 
L 224.256 99.684 
z
" clip-path="url(#p71797d8926)" style="fill: #470e61"/>
    <path d="M 248.064 99.684 
L 248.064 91.368 
L 271.872 91.368 
L 271.872 99.684 
L 248.064 99.684 
z
" clip-path="url(#p71797d8926)" style="fill: #471063"/>
    <path d="M 271.872 99.684 
L 271.872 91.368 
L 295.68 91.368 
L 295.68 99.684 
L 271.872 99.684 
z
" clip-path="url(#p71797d8926)" style="fill: #482576"/>
    <path d="M 295.68 99.684 
L 295.68 91.368 
L 319.488 91.368 
L 319.488 99.684 
L 295.68 99.684 
z
" clip-path="url(#p71797d8926)" style="fill: #414287"/>
    <path d="M 319.488 99.684 
L 319.488 91.368 
L 343.296 91.368 
L 343.296 99.684 
L 319.488 99.684 
z
" clip-path="url(#p71797d8926)" style="fill: #470d60"/>
    <path d="M 343.296 99.684 
L 343.296 91.368 
L 367.104 91.368 
L 367.104 99.684 
L 343.296 99.684 
z
" clip-path="url(#p71797d8926)" style="fill: #440154"/>
    <path d="M 367.104 99.684 
L 367.104 91.368 
L 390.912 91.368 
L 390.912 99.684 
L 367.104 99.684 
z
" clip-path="url(#p71797d8926)" style="fill: #482677"/>
    <path d="M 390.912 99.684 
L 390.912 91.368 
L 414.72 91.368 
L 414.72 99.684 
L 390.912 99.684 
z
" clip-path="url(#p71797d8926)" style="fill: #440154"/>
    <path d="M 57.6 91.368 
L 57.6 83.052 
L 81.408 83.052 
L 81.408 91.368 
L 57.6 91.368 
z
" clip-path="url(#p71797d8926)" style="fill: #460a5d"/>
    <path d="M 81.408 91.368 
L 81.408 83.052 
L 105.216 83.052 
L 105.216 91.368 
L 81.408 91.368 
z
" clip-path="url(#p71797d8926)" style="fill: #481769"/>
    <path d="M 105.216 91.368 
L 105.216 83.052 
L 129.024 83.052 
L 129.024 91.368 
L 105.216 91.368 
z
" clip-path="url(#p71797d8926)" style="fill: #460b5e"/>
    <path d="M 129.024 91.368 
L 129.024 83.052 
L 152.832 83.052 
L 152.832 91.368 
L 129.024 91.368 
z
" clip-path="url(#p71797d8926)" style="fill: #440154"/>
    <path d="M 152.832 91.368 
L 152.832 83.052 
L 176.64 83.052 
L 176.64 91.368 
L 152.832 91.368 
z
" clip-path="url(#p71797d8926)" style="fill: #32658e"/>
    <path d="M 176.64 91.368 
L 176.64 83.052 
L 200.448 83.052 
L 200.448 91.368 
L 176.64 91.368 
z
" clip-path="url(#p71797d8926)" style="fill: #470d60"/>
    <path d="M 200.448 91.368 
L 200.448 83.052 
L 224.256 83.052 
L 224.256 91.368 
L 200.448 91.368 
z
" clip-path="url(#p71797d8926)" style="fill: #46075a"/>
    <path d="M 224.256 91.368 
L 224.256 83.052 
L 248.064 83.052 
L 248.064 91.368 
L 224.256 91.368 
z
" clip-path="url(#p71797d8926)" style="fill: #440154"/>
    <path d="M 248.064 91.368 
L 248.064 83.052 
L 271.872 83.052 
L 271.872 91.368 
L 248.064 91.368 
z
" clip-path="url(#p71797d8926)" style="fill: #46085c"/>
    <path d="M 271.872 91.368 
L 271.872 83.052 
L 295.68 83.052 
L 295.68 91.368 
L 271.872 91.368 
z
" clip-path="url(#p71797d8926)" style="fill: #470d60"/>
    <path d="M 295.68 91.368 
L 295.68 83.052 
L 319.488 83.052 
L 319.488 91.368 
L 295.68 91.368 
z
" clip-path="url(#p71797d8926)" style="fill: #31688e"/>
    <path d="M 319.488 91.368 
L 319.488 83.052 
L 343.296 83.052 
L 343.296 91.368 
L 319.488 91.368 
z
" clip-path="url(#p71797d8926)" style="fill: #440154"/>
    <path d="M 343.296 91.368 
L 343.296 83.052 
L 367.104 83.052 
L 367.104 91.368 
L 343.296 91.368 
z
" clip-path="url(#p71797d8926)" style="fill: #46085c"/>
    <path d="M 367.104 91.368 
L 367.104 83.052 
L 390.912 83.052 
L 390.912 91.368 
L 367.104 91.368 
z
" clip-path="url(#p71797d8926)" style="fill: #481769"/>
    <path d="M 390.912 91.368 
L 390.912 83.052 
L 414.72 83.052 
L 414.72 91.368 
L 390.912 91.368 
z
" clip-path="url(#p71797d8926)" style="fill: #460b5e"/>
    <path d="M 57.6 83.052 
L 57.6 74.736 
L 81.408 74.736 
L 81.408 83.052 
L 57.6 83.052 
z
" clip-path="url(#p71797d8926)" style="fill: #481467"/>
    <path d="M 81.408 83.052 
L 81.408 74.736 
L 105.216 74.736 
L 105.216 83.052 
L 81.408 83.052 
z
" clip-path="url(#p71797d8926)" style="fill: #450457"/>
    <path d="M 105.216 83.052 
L 105.216 74.736 
L 129.024 74.736 
L 129.024 83.052 
L 105.216 83.052 
z
" clip-path="url(#p71797d8926)" style="fill: #460a5d"/>
    <path d="M 129.024 83.052 
L 129.024 74.736 
L 152.832 74.736 
L 152.832 83.052 
L 129.024 83.052 
z
" clip-path="url(#p71797d8926)" style="fill: #472a7a"/>
    <path d="M 152.832 83.052 
L 152.832 74.736 
L 176.64 74.736 
L 176.64 83.052 
L 152.832 83.052 
z
" clip-path="url(#p71797d8926)" style="fill: #38588c"/>
    <path d="M 176.64 83.052 
L 176.64 74.736 
L 200.448 74.736 
L 200.448 83.052 
L 176.64 83.052 
z
" clip-path="url(#p71797d8926)" style="fill: #440154"/>
    <path d="M 200.448 83.052 
L 200.448 74.736 
L 224.256 74.736 
L 224.256 83.052 
L 200.448 83.052 
z
" clip-path="url(#p71797d8926)" style="fill: #450457"/>
    <path d="M 224.256 83.052 
L 224.256 74.736 
L 248.064 74.736 
L 248.064 83.052 
L 224.256 83.052 
z
" clip-path="url(#p71797d8926)" style="fill: #440154"/>
    <path d="M 248.064 83.052 
L 248.064 74.736 
L 271.872 74.736 
L 271.872 83.052 
L 248.064 83.052 
z
" clip-path="url(#p71797d8926)" style="fill: #450457"/>
    <path d="M 271.872 83.052 
L 271.872 74.736 
L 295.68 74.736 
L 295.68 83.052 
L 271.872 83.052 
z
" clip-path="url(#p71797d8926)" style="fill: #440154"/>
    <path d="M 295.68 83.052 
L 295.68 74.736 
L 319.488 74.736 
L 319.488 83.052 
L 295.68 83.052 
z
" clip-path="url(#p71797d8926)" style="fill: #365c8d"/>
    <path d="M 319.488 83.052 
L 319.488 74.736 
L 343.296 74.736 
L 343.296 83.052 
L 319.488 83.052 
z
" clip-path="url(#p71797d8926)" style="fill: #472a7a"/>
    <path d="M 343.296 83.052 
L 343.296 74.736 
L 367.104 74.736 
L 367.104 83.052 
L 343.296 83.052 
z
" clip-path="url(#p71797d8926)" style="fill: #46075a"/>
    <path d="M 367.104 83.052 
L 367.104 74.736 
L 390.912 74.736 
L 390.912 83.052 
L 367.104 83.052 
z
" clip-path="url(#p71797d8926)" style="fill: #450457"/>
    <path d="M 390.912 83.052 
L 390.912 74.736 
L 414.72 74.736 
L 414.72 83.052 
L 390.912 83.052 
z
" clip-path="url(#p71797d8926)" style="fill: #481668"/>
    <path d="M 57.6 74.736 
L 57.6 66.42 
L 81.408 66.42 
L 81.408 74.736 
L 57.6 74.736 
z
" clip-path="url(#p71797d8926)" style="fill: #481769"/>
    <path d="M 81.408 74.736 
L 81.408 66.42 
L 105.216 66.42 
L 105.216 74.736 
L 81.408 74.736 
z
" clip-path="url(#p71797d8926)" style="fill: #440154"/>
    <path d="M 105.216 74.736 
L 105.216 66.42 
L 129.024 66.42 
L 129.024 74.736 
L 105.216 74.736 
z
" clip-path="url(#p71797d8926)" style="fill: #440154"/>
    <path d="M 129.024 74.736 
L 129.024 66.42 
L 152.832 66.42 
L 152.832 74.736 
L 129.024 74.736 
z
" clip-path="url(#p71797d8926)" style="fill: #34608d"/>
    <path d="M 152.832 74.736 
L 152.832 66.42 
L 176.64 66.42 
L 176.64 74.736 
L 152.832 74.736 
z
" clip-path="url(#p71797d8926)" style="fill: #482475"/>
    <path d="M 176.64 74.736 
L 176.64 66.42 
L 200.448 66.42 
L 200.448 74.736 
L 176.64 74.736 
z
" clip-path="url(#p71797d8926)" style="fill: #46075a"/>
    <path d="M 200.448 74.736 
L 200.448 66.42 
L 224.256 66.42 
L 224.256 74.736 
L 200.448 74.736 
z
" clip-path="url(#p71797d8926)" style="fill: #450559"/>
    <path d="M 224.256 74.736 
L 224.256 66.42 
L 248.064 66.42 
L 248.064 74.736 
L 224.256 74.736 
z
" clip-path="url(#p71797d8926)" style="fill: #450559"/>
    <path d="M 248.064 74.736 
L 248.064 66.42 
L 271.872 66.42 
L 271.872 74.736 
L 248.064 74.736 
z
" clip-path="url(#p71797d8926)" style="fill: #450457"/>
    <path d="M 271.872 74.736 
L 271.872 66.42 
L 295.68 66.42 
L 295.68 74.736 
L 271.872 74.736 
z
" clip-path="url(#p71797d8926)" style="fill: #450559"/>
    <path d="M 295.68 74.736 
L 295.68 66.42 
L 319.488 66.42 
L 319.488 74.736 
L 295.68 74.736 
z
" clip-path="url(#p71797d8926)" style="fill: #482878"/>
    <path d="M 319.488 74.736 
L 319.488 66.42 
L 343.296 66.42 
L 343.296 74.736 
L 319.488 74.736 
z
" clip-path="url(#p71797d8926)" style="fill: #355f8d"/>
    <path d="M 343.296 74.736 
L 343.296 66.42 
L 367.104 66.42 
L 367.104 74.736 
L 343.296 74.736 
z
" clip-path="url(#p71797d8926)" style="fill: #440154"/>
    <path d="M 367.104 74.736 
L 367.104 66.42 
L 390.912 66.42 
L 390.912 74.736 
L 367.104 74.736 
z
" clip-path="url(#p71797d8926)" style="fill: #440154"/>
    <path d="M 390.912 74.736 
L 390.912 66.42 
L 414.72 66.42 
L 414.72 74.736 
L 390.912 74.736 
z
" clip-path="url(#p71797d8926)" style="fill: #481769"/>
    <path d="M 57.6 66.42 
L 57.6 58.104 
L 81.408 58.104 
L 81.408 66.42 
L 57.6 66.42 
z
" clip-path="url(#p71797d8926)" style="fill: #471365"/>
    <path d="M 81.408 66.42 
L 81.408 58.104 
L 105.216 58.104 
L 105.216 66.42 
L 81.408 66.42 
z
" clip-path="url(#p71797d8926)" style="fill: #440256"/>
    <path d="M 105.216 66.42 
L 105.216 58.104 
L 129.024 58.104 
L 129.024 66.42 
L 105.216 66.42 
z
" clip-path="url(#p71797d8926)" style="fill: #48186a"/>
    <path d="M 129.024 66.42 
L 129.024 58.104 
L 152.832 58.104 
L 152.832 66.42 
L 129.024 66.42 
z
" clip-path="url(#p71797d8926)" style="fill: #32658e"/>
    <path d="M 152.832 66.42 
L 152.832 58.104 
L 176.64 58.104 
L 176.64 66.42 
L 152.832 66.42 
z
" clip-path="url(#p71797d8926)" style="fill: #440154"/>
    <path d="M 176.64 66.42 
L 176.64 58.104 
L 200.448 58.104 
L 200.448 66.42 
L 176.64 66.42 
z
" clip-path="url(#p71797d8926)" style="fill: #460a5d"/>
    <path d="M 200.448 66.42 
L 200.448 58.104 
L 224.256 58.104 
L 224.256 66.42 
L 200.448 66.42 
z
" clip-path="url(#p71797d8926)" style="fill: #450559"/>
    <path d="M 224.256 66.42 
L 224.256 58.104 
L 248.064 58.104 
L 248.064 66.42 
L 224.256 66.42 
z
" clip-path="url(#p71797d8926)" style="fill: #470e61"/>
    <path d="M 248.064 66.42 
L 248.064 58.104 
L 271.872 58.104 
L 271.872 66.42 
L 248.064 66.42 
z
" clip-path="url(#p71797d8926)" style="fill: #450457"/>
    <path d="M 271.872 66.42 
L 271.872 58.104 
L 295.68 58.104 
L 295.68 66.42 
L 271.872 66.42 
z
" clip-path="url(#p71797d8926)" style="fill: #460a5d"/>
    <path d="M 295.68 66.42 
L 295.68 58.104 
L 319.488 58.104 
L 319.488 66.42 
L 295.68 66.42 
z
" clip-path="url(#p71797d8926)" style="fill: #440154"/>
    <path d="M 319.488 66.42 
L 319.488 58.104 
L 343.296 58.104 
L 343.296 66.42 
L 319.488 66.42 
z
" clip-path="url(#p71797d8926)" style="fill: #32648e"/>
    <path d="M 343.296 66.42 
L 343.296 58.104 
L 367.104 58.104 
L 367.104 66.42 
L 343.296 66.42 
z
" clip-path="url(#p71797d8926)" style="fill: #481c6e"/>
    <path d="M 367.104 66.42 
L 367.104 58.104 
L 390.912 58.104 
L 390.912 66.42 
L 367.104 66.42 
z
" clip-path="url(#p71797d8926)" style="fill: #440256"/>
    <path d="M 390.912 66.42 
L 390.912 58.104 
L 414.72 58.104 
L 414.72 66.42 
L 390.912 66.42 
z
" clip-path="url(#p71797d8926)" style="fill: #481467"/>
    <path d="M 57.6 58.104 
L 57.6 49.788 
L 81.408 49.788 
L 81.408 58.104 
L 57.6 58.104 
z
" clip-path="url(#p71797d8926)" style="fill: #471063"/>
    <path d="M 81.408 58.104 
L 81.408 49.788 
L 105.216 49.788 
L 105.216 58.104 
L 81.408 58.104 
z
" clip-path="url(#p71797d8926)" style="fill: #440154"/>
    <path d="M 105.216 58.104 
L 105.216 49.788 
L 129.024 49.788 
L 129.024 58.104 
L 105.216 58.104 
z
" clip-path="url(#p71797d8926)" style="fill: #3f4788"/>
    <path d="M 129.024 58.104 
L 129.024 49.788 
L 152.832 49.788 
L 152.832 58.104 
L 129.024 58.104 
z
" clip-path="url(#p71797d8926)" style="fill: #46337f"/>
    <path d="M 152.832 58.104 
L 152.832 49.788 
L 176.64 49.788 
L 176.64 58.104 
L 152.832 58.104 
z
" clip-path="url(#p71797d8926)" style="fill: #471164"/>
    <path d="M 176.64 58.104 
L 176.64 49.788 
L 200.448 49.788 
L 200.448 58.104 
L 176.64 58.104 
z
" clip-path="url(#p71797d8926)" style="fill: #440256"/>
    <path d="M 200.448 58.104 
L 200.448 49.788 
L 224.256 49.788 
L 224.256 58.104 
L 200.448 58.104 
z
" clip-path="url(#p71797d8926)" style="fill: #440256"/>
    <path d="M 224.256 58.104 
L 224.256 49.788 
L 248.064 49.788 
L 248.064 58.104 
L 224.256 58.104 
z
" clip-path="url(#p71797d8926)" style="fill: #481a6c"/>
    <path d="M 248.064 58.104 
L 248.064 49.788 
L 271.872 49.788 
L 271.872 58.104 
L 248.064 58.104 
z
" clip-path="url(#p71797d8926)" style="fill: #440154"/>
    <path d="M 271.872 58.104 
L 271.872 49.788 
L 295.68 49.788 
L 295.68 58.104 
L 271.872 58.104 
z
" clip-path="url(#p71797d8926)" style="fill: #440256"/>
    <path d="M 295.68 58.104 
L 295.68 49.788 
L 319.488 49.788 
L 319.488 58.104 
L 295.68 58.104 
z
" clip-path="url(#p71797d8926)" style="fill: #470e61"/>
    <path d="M 319.488 58.104 
L 319.488 49.788 
L 343.296 49.788 
L 343.296 58.104 
L 319.488 58.104 
z
" clip-path="url(#p71797d8926)" style="fill: #46337f"/>
    <path d="M 343.296 58.104 
L 343.296 49.788 
L 367.104 49.788 
L 367.104 58.104 
L 343.296 58.104 
z
" clip-path="url(#p71797d8926)" style="fill: #3d4d8a"/>
    <path d="M 367.104 58.104 
L 367.104 49.788 
L 390.912 49.788 
L 390.912 58.104 
L 367.104 58.104 
z
" clip-path="url(#p71797d8926)" style="fill: #440154"/>
    <path d="M 390.912 58.104 
L 390.912 49.788 
L 414.72 49.788 
L 414.72 58.104 
L 390.912 58.104 
z
" clip-path="url(#p71797d8926)" style="fill: #471164"/>
    <path d="M 57.6 49.788 
L 57.6 41.472 
L 81.408 41.472 
L 81.408 49.788 
L 57.6 49.788 
z
" clip-path="url(#p71797d8926)" style="fill: #471365"/>
    <path d="M 81.408 49.788 
L 81.408 41.472 
L 105.216 41.472 
L 105.216 49.788 
L 81.408 49.788 
z
" clip-path="url(#p71797d8926)" style="fill: #450559"/>
    <path d="M 105.216 49.788 
L 105.216 41.472 
L 129.024 41.472 
L 129.024 49.788 
L 105.216 49.788 
z
" clip-path="url(#p71797d8926)" style="fill: #365c8d"/>
    <path d="M 129.024 49.788 
L 129.024 41.472 
L 152.832 41.472 
L 152.832 49.788 
L 129.024 49.788 
z
" clip-path="url(#p71797d8926)" style="fill: #440256"/>
    <path d="M 152.832 49.788 
L 152.832 41.472 
L 176.64 41.472 
L 176.64 49.788 
L 152.832 49.788 
z
" clip-path="url(#p71797d8926)" style="fill: #482374"/>
    <path d="M 176.64 49.788 
L 176.64 41.472 
L 200.448 41.472 
L 200.448 49.788 
L 176.64 49.788 
z
" clip-path="url(#p71797d8926)" style="fill: #440154"/>
    <path d="M 200.448 49.788 
L 200.448 41.472 
L 224.256 41.472 
L 224.256 49.788 
L 200.448 49.788 
z
" clip-path="url(#p71797d8926)" style="fill: #440154"/>
    <path d="M 224.256 49.788 
L 224.256 41.472 
L 248.064 41.472 
L 248.064 49.788 
L 224.256 49.788 
z
" clip-path="url(#p71797d8926)" style="fill: #481c6e"/>
    <path d="M 248.064 49.788 
L 248.064 41.472 
L 271.872 41.472 
L 271.872 49.788 
L 248.064 49.788 
z
" clip-path="url(#p71797d8926)" style="fill: #440154"/>
    <path d="M 271.872 49.788 
L 271.872 41.472 
L 295.68 41.472 
L 295.68 49.788 
L 271.872 49.788 
z
" clip-path="url(#p71797d8926)" style="fill: #440154"/>
    <path d="M 295.68 49.788 
L 295.68 41.472 
L 319.488 41.472 
L 319.488 49.788 
L 295.68 49.788 
z
" clip-path="url(#p71797d8926)" style="fill: #482173"/>
    <path d="M 319.488 49.788 
L 319.488 41.472 
L 343.296 41.472 
L 343.296 49.788 
L 319.488 49.788 
z
" clip-path="url(#p71797d8926)" style="fill: #440256"/>
    <path d="M 343.296 49.788 
L 343.296 41.472 
L 367.104 41.472 
L 367.104 49.788 
L 343.296 49.788 
z
" clip-path="url(#p71797d8926)" style="fill: #355f8d"/>
    <path d="M 367.104 49.788 
L 367.104 41.472 
L 390.912 41.472 
L 390.912 49.788 
L 367.104 49.788 
z
" clip-path="url(#p71797d8926)" style="fill: #450559"/>
    <path d="M 390.912 49.788 
L 390.912 41.472 
L 414.72 41.472 
L 414.72 49.788 
L 390.912 49.788 
z
" clip-path="url(#p71797d8926)" style="fill: #481769"/>
   </g>
   <g id="matplotlib.axis_1">
    <g id="xtick_1">
     <g id="line2d_1">
      <defs>
       <path id="m36ba3af3d7" d="M 0 0 
L 0 3.5 
" style="stroke: #000000; stroke-width: 0.8"/>
      </defs>
      <g>
       <use xlink:href="#m36ba3af3d7" x="57.6" y="307.584" style="stroke: #000000; stroke-width: 0.8"/>
      </g>
     </g>
     <g id="text_1">
      <!-- 0 -->
      <g transform="translate(54.41875 322.182437) scale(0.1 -0.1)">
       <defs>
        <path id="DejaVuSans-30" d="M 2034 4250 
Q 1547 4250 1301 3770 
Q 1056 3291 1056 2328 
Q 1056 1369 1301 889 
Q 1547 409 2034 409 
Q 2525 409 2770 889 
Q 3016 1369 3016 2328 
Q 3016 3291 2770 3770 
Q 2525 4250 2034 4250 
z
M 2034 4750 
Q 2819 4750 3233 4129 
Q 3647 3509 3647 2328 
Q 3647 1150 3233 529 
Q 2819 -91 2034 -91 
Q 1250 -91 836 529 
Q 422 1150 422 2328 
Q 422 3509 836 4129 
Q 1250 4750 2034 4750 
z
" transform="scale(0.015625)"/>
       </defs>
       <use xlink:href="#DejaVuSans-30"/>
      </g>
     </g>
    </g>
    <g id="xtick_2">
     <g id="line2d_2">
      <g>
       <use xlink:href="#m36ba3af3d7" x="105.216" y="307.584" style="stroke: #000000; stroke-width: 0.8"/>
      </g>
     </g>
     <g id="text_2">
      <!-- 2 -->
      <g transform="translate(102.03475 322.182437) scale(0.1 -0.1)">
       <defs>
        <path id="DejaVuSans-32" d="M 1228 531 
L 3431 531 
L 3431 0 
L 469 0 
L 469 531 
Q 828 903 1448 1529 
Q 2069 2156 2228 2338 
Q 2531 2678 2651 2914 
Q 2772 3150 2772 3378 
Q 2772 3750 2511 3984 
Q 2250 4219 1831 4219 
Q 1534 4219 1204 4116 
Q 875 4013 500 3803 
L 500 4441 
Q 881 4594 1212 4672 
Q 1544 4750 1819 4750 
Q 2544 4750 2975 4387 
Q 3406 4025 3406 3419 
Q 3406 3131 3298 2873 
Q 3191 2616 2906 2266 
Q 2828 2175 2409 1742 
Q 1991 1309 1228 531 
z
" transform="scale(0.015625)"/>
       </defs>
       <use xlink:href="#DejaVuSans-32"/>
      </g>
     </g>
    </g>
    <g id="xtick_3">
     <g id="line2d_3">
      <g>
       <use xlink:href="#m36ba3af3d7" x="152.832" y="307.584" style="stroke: #000000; stroke-width: 0.8"/>
      </g>
     </g>
     <g id="text_3">
      <!-- 4 -->
      <g transform="translate(149.65075 322.182437) scale(0.1 -0.1)">
       <defs>
        <path id="DejaVuSans-34" d="M 2419 4116 
L 825 1625 
L 2419 1625 
L 2419 4116 
z
M 2253 4666 
L 3047 4666 
L 3047 1625 
L 3713 1625 
L 3713 1100 
L 3047 1100 
L 3047 0 
L 2419 0 
L 2419 1100 
L 313 1100 
L 313 1709 
L 2253 4666 
z
" transform="scale(0.015625)"/>
       </defs>
       <use xlink:href="#DejaVuSans-34"/>
      </g>
     </g>
    </g>
    <g id="xtick_4">
     <g id="line2d_4">
      <g>
       <use xlink:href="#m36ba3af3d7" x="200.448" y="307.584" style="stroke: #000000; stroke-width: 0.8"/>
      </g>
     </g>
     <g id="text_4">
      <!-- 6 -->
      <g transform="translate(197.26675 322.182437) scale(0.1 -0.1)">
       <defs>
        <path id="DejaVuSans-36" d="M 2113 2584 
Q 1688 2584 1439 2293 
Q 1191 2003 1191 1497 
Q 1191 994 1439 701 
Q 1688 409 2113 409 
Q 2538 409 2786 701 
Q 3034 994 3034 1497 
Q 3034 2003 2786 2293 
Q 2538 2584 2113 2584 
z
M 3366 4563 
L 3366 3988 
Q 3128 4100 2886 4159 
Q 2644 4219 2406 4219 
Q 1781 4219 1451 3797 
Q 1122 3375 1075 2522 
Q 1259 2794 1537 2939 
Q 1816 3084 2150 3084 
Q 2853 3084 3261 2657 
Q 3669 2231 3669 1497 
Q 3669 778 3244 343 
Q 2819 -91 2113 -91 
Q 1303 -91 875 529 
Q 447 1150 447 2328 
Q 447 3434 972 4092 
Q 1497 4750 2381 4750 
Q 2619 4750 2861 4703 
Q 3103 4656 3366 4563 
z
" transform="scale(0.015625)"/>
       </defs>
       <use xlink:href="#DejaVuSans-36"/>
      </g>
     </g>
    </g>
    <g id="xtick_5">
     <g id="line2d_5">
      <g>
       <use xlink:href="#m36ba3af3d7" x="248.064" y="307.584" style="stroke: #000000; stroke-width: 0.8"/>
      </g>
     </g>
     <g id="text_5">
      <!-- 8 -->
      <g transform="translate(244.88275 322.182437) scale(0.1 -0.1)">
       <defs>
        <path id="DejaVuSans-38" d="M 2034 2216 
Q 1584 2216 1326 1975 
Q 1069 1734 1069 1313 
Q 1069 891 1326 650 
Q 1584 409 2034 409 
Q 2484 409 2743 651 
Q 3003 894 3003 1313 
Q 3003 1734 2745 1975 
Q 2488 2216 2034 2216 
z
M 1403 2484 
Q 997 2584 770 2862 
Q 544 3141 544 3541 
Q 544 4100 942 4425 
Q 1341 4750 2034 4750 
Q 2731 4750 3128 4425 
Q 3525 4100 3525 3541 
Q 3525 3141 3298 2862 
Q 3072 2584 2669 2484 
Q 3125 2378 3379 2068 
Q 3634 1759 3634 1313 
Q 3634 634 3220 271 
Q 2806 -91 2034 -91 
Q 1263 -91 848 271 
Q 434 634 434 1313 
Q 434 1759 690 2068 
Q 947 2378 1403 2484 
z
M 1172 3481 
Q 1172 3119 1398 2916 
Q 1625 2713 2034 2713 
Q 2441 2713 2670 2916 
Q 2900 3119 2900 3481 
Q 2900 3844 2670 4047 
Q 2441 4250 2034 4250 
Q 1625 4250 1398 4047 
Q 1172 3844 1172 3481 
z
" transform="scale(0.015625)"/>
       </defs>
       <use xlink:href="#DejaVuSans-38"/>
      </g>
     </g>
    </g>
    <g id="xtick_6">
     <g id="line2d_6">
      <g>
       <use xlink:href="#m36ba3af3d7" x="295.68" y="307.584" style="stroke: #000000; stroke-width: 0.8"/>
      </g>
     </g>
     <g id="text_6">
      <!-- 10 -->
      <g transform="translate(289.3175 322.182437) scale(0.1 -0.1)">
       <defs>
        <path id="DejaVuSans-31" d="M 794 531 
L 1825 531 
L 1825 4091 
L 703 3866 
L 703 4441 
L 1819 4666 
L 2450 4666 
L 2450 531 
L 3481 531 
L 3481 0 
L 794 0 
L 794 531 
z
" transform="scale(0.015625)"/>
       </defs>
       <use xlink:href="#DejaVuSans-31"/>
       <use xlink:href="#DejaVuSans-30" x="63.623047"/>
      </g>
     </g>
    </g>
    <g id="xtick_7">
     <g id="line2d_7">
      <g>
       <use xlink:href="#m36ba3af3d7" x="343.296" y="307.584" style="stroke: #000000; stroke-width: 0.8"/>
      </g>
     </g>
     <g id="text_7">
      <!-- 12 -->
      <g transform="translate(336.9335 322.182437) scale(0.1 -0.1)">
       <use xlink:href="#DejaVuSans-31"/>
       <use xlink:href="#DejaVuSans-32" x="63.623047"/>
      </g>
     </g>
    </g>
    <g id="xtick_8">
     <g id="line2d_8">
      <g>
       <use xlink:href="#m36ba3af3d7" x="390.912" y="307.584" style="stroke: #000000; stroke-width: 0.8"/>
      </g>
     </g>
     <g id="text_8">
      <!-- 14 -->
      <g transform="translate(384.5495 322.182437) scale(0.1 -0.1)">
       <use xlink:href="#DejaVuSans-31"/>
       <use xlink:href="#DejaVuSans-34" x="63.623047"/>
      </g>
     </g>
    </g>
   </g>
   <g id="matplotlib.axis_2">
    <g id="ytick_1">
     <g id="line2d_9">
      <defs>
       <path id="m4e45660ceb" d="M 0 0 
L -3.5 0 
" style="stroke: #000000; stroke-width: 0.8"/>
      </defs>
      <g>
       <use xlink:href="#m4e45660ceb" x="57.6" y="307.584" style="stroke: #000000; stroke-width: 0.8"/>
      </g>
     </g>
     <g id="text_9">
      <!-- 0 -->
      <g transform="translate(44.2375 311.383219) scale(0.1 -0.1)">
       <use xlink:href="#DejaVuSans-30"/>
      </g>
     </g>
    </g>
    <g id="ytick_2">
     <g id="line2d_10">
      <g>
       <use xlink:href="#m4e45660ceb" x="57.6" y="266.004" style="stroke: #000000; stroke-width: 0.8"/>
      </g>
     </g>
     <g id="text_10">
      <!-- 5 -->
      <g transform="translate(44.2375 269.803219) scale(0.1 -0.1)">
       <defs>
        <path id="DejaVuSans-35" d="M 691 4666 
L 3169 4666 
L 3169 4134 
L 1269 4134 
L 1269 2991 
Q 1406 3038 1543 3061 
Q 1681 3084 1819 3084 
Q 2600 3084 3056 2656 
Q 3513 2228 3513 1497 
Q 3513 744 3044 326 
Q 2575 -91 1722 -91 
Q 1428 -91 1123 -41 
Q 819 9 494 109 
L 494 744 
Q 775 591 1075 516 
Q 1375 441 1709 441 
Q 2250 441 2565 725 
Q 2881 1009 2881 1497 
Q 2881 1984 2565 2268 
Q 2250 2553 1709 2553 
Q 1456 2553 1204 2497 
Q 953 2441 691 2322 
L 691 4666 
z
" transform="scale(0.015625)"/>
       </defs>
       <use xlink:href="#DejaVuSans-35"/>
      </g>
     </g>
    </g>
    <g id="ytick_3">
     <g id="line2d_11">
      <g>
       <use xlink:href="#m4e45660ceb" x="57.6" y="224.424" style="stroke: #000000; stroke-width: 0.8"/>
      </g>
     </g>
     <g id="text_11">
      <!-- 10 -->
      <g transform="translate(37.875 228.223219) scale(0.1 -0.1)">
       <use xlink:href="#DejaVuSans-31"/>
       <use xlink:href="#DejaVuSans-30" x="63.623047"/>
      </g>
     </g>
    </g>
    <g id="ytick_4">
     <g id="line2d_12">
      <g>
       <use xlink:href="#m4e45660ceb" x="57.6" y="182.844" style="stroke: #000000; stroke-width: 0.8"/>
      </g>
     </g>
     <g id="text_12">
      <!-- 15 -->
      <g transform="translate(37.875 186.643219) scale(0.1 -0.1)">
       <use xlink:href="#DejaVuSans-31"/>
       <use xlink:href="#DejaVuSans-35" x="63.623047"/>
      </g>
     </g>
    </g>
    <g id="ytick_5">
     <g id="line2d_13">
      <g>
       <use xlink:href="#m4e45660ceb" x="57.6" y="141.264" style="stroke: #000000; stroke-width: 0.8"/>
      </g>
     </g>
     <g id="text_13">
      <!-- 20 -->
      <g transform="translate(37.875 145.063219) scale(0.1 -0.1)">
       <use xlink:href="#DejaVuSans-32"/>
       <use xlink:href="#DejaVuSans-30" x="63.623047"/>
      </g>
     </g>
    </g>
    <g id="ytick_6">
     <g id="line2d_14">
      <g>
       <use xlink:href="#m4e45660ceb" x="57.6" y="99.684" style="stroke: #000000; stroke-width: 0.8"/>
      </g>
     </g>
     <g id="text_14">
      <!-- 25 -->
      <g transform="translate(37.875 103.483219) scale(0.1 -0.1)">
       <use xlink:href="#DejaVuSans-32"/>
       <use xlink:href="#DejaVuSans-35" x="63.623047"/>
      </g>
     </g>
    </g>
    <g id="ytick_7">
     <g id="line2d_15">
      <g>
       <use xlink:href="#m4e45660ceb" x="57.6" y="58.104" style="stroke: #000000; stroke-width: 0.8"/>
      </g>
     </g>
     <g id="text_15">
      <!-- 30 -->
      <g transform="translate(37.875 61.903219) scale(0.1 -0.1)">
       <defs>
        <path id="DejaVuSans-33" d="M 2597 2516 
Q 3050 2419 3304 2112 
Q 3559 1806 3559 1356 
Q 3559 666 3084 287 
Q 2609 -91 1734 -91 
Q 1441 -91 1130 -33 
Q 819 25 488 141 
L 488 750 
Q 750 597 1062 519 
Q 1375 441 1716 441 
Q 2309 441 2620 675 
Q 2931 909 2931 1356 
Q 2931 1769 2642 2001 
Q 2353 2234 1838 2234 
L 1294 2234 
L 1294 2753 
L 1863 2753 
Q 2328 2753 2575 2939 
Q 2822 3125 2822 3475 
Q 2822 3834 2567 4026 
Q 2313 4219 1838 4219 
Q 1578 4219 1281 4162 
Q 984 4106 628 3988 
L 628 4550 
Q 988 4650 1302 4700 
Q 1616 4750 1894 4750 
Q 2613 4750 3031 4423 
Q 3450 4097 3450 3541 
Q 3450 3153 3228 2886 
Q 3006 2619 2597 2516 
z
" transform="scale(0.015625)"/>
       </defs>
       <use xlink:href="#DejaVuSans-33"/>
       <use xlink:href="#DejaVuSans-30" x="63.623047"/>
      </g>
     </g>
    </g>
   </g>
   <g id="patch_3">
    <path d="M 57.6 307.584 
L 57.6 41.472 
" style="fill: none; stroke: #000000; stroke-width: 0.8; stroke-linejoin: miter; stroke-linecap: square"/>
   </g>
   <g id="patch_4">
    <path d="M 414.72 307.584 
L 414.72 41.472 
" style="fill: none; stroke: #000000; stroke-width: 0.8; stroke-linejoin: miter; stroke-linecap: square"/>
   </g>
   <g id="patch_5">
    <path d="M 57.6 307.584 
L 414.72 307.584 
" style="fill: none; stroke: #000000; stroke-width: 0.8; stroke-linejoin: miter; stroke-linecap: square"/>
   </g>
   <g id="patch_6">
    <path d="M 57.6 41.472 
L 414.72 41.472 
" style="fill: none; stroke: #000000; stroke-width: 0.8; stroke-linejoin: miter; stroke-linecap: square"/>
   </g>
  </g>
 </g>
 <defs>
  <clipPath id="p71797d8926">
   <rect x="57.6" y="41.472" width="357.12" height="266.112"/>
  </clipPath>
 </defs>
</svg>
